<svg xmlns="http://www.w3.org/2000/svg" viewBox="0 0 383.27 383.09"><defs><style>.cls-1{fill:#c4ab45;}</style></defs><g id="Layer_2" data-name="Layer 2"><g id="OBJECTS"><path class="cls-1" d="M383.27,345.08c-1.62,0-3.24-.08-4.86-.08H10.52A30.37,30.37,0,0,1,6,344.85c-3.73-.54-5.72-2.75-6-6.53-.09-1.24,0-2.49,0-3.74V0H12.74V25.43H38.06V38.12H13V63.73h12.2V76.62H12.92v25.54H38.06v12.75H13V140.4H25.28v12.87H13v25.55h25v12.65H13V217H25.21v12.84H13v25.47H38v12.9H13v25.51H25.22v12.79H13.08V332.2H378c1.75,0,3.49.09,5.23.14Z"/><path class="cls-1" d="M280.32,109.74c14.88-8.71,29.74-17.35,44.49-26.16.89-.53,1.53-2.5,1.34-3.66-2-12.78,6.9-25.61,20-28.22,13.76-2.72,26.37,5.38,30,19,2.66,10.06-2,21.77-10.84,27.39-9.28,5.89-21.63,5.46-29.64-1.47-2.58-2.23-4.26-2.09-7-.44-12.91,7.79-26,15.36-39,22.9-2.18,1.26-3.1,2.35-2.56,5.2,1.81,9.46-3.46,20.25-11.85,25.24-9.15,5.45-20.81,4.88-28.81-1.41-8.35-6.57-12.08-17.3-9-27,.87-2.72.47-4.16-1.79-5.91C220.78,103.64,206,91.94,191.23,80.3c-1.06-.84-2.17-1.62-3.19-2.37-9.6,5.41-11.64,5.77-23.44,4.07-.59.86-1.24,1.76-1.83,2.7Q133.34,131.34,103.88,178c-1.41,2.21-1.53,3.63.1,5.86a25.06,25.06,0,0,1-.16,29.07,25.51,25.51,0,0,1-46.21-14.58c-.13-10.83,6.57-21,16.78-24a37.92,37.92,0,0,1,13.9-1c2.65.24,3.73-.3,5-2.32q26-41.31,52-82.56c2.26-3.58,4.41-7.24,6.81-10.73,1.31-1.89,1.42-3.17,0-5.2-6-8.28-7-17.27-2.32-26.43C154.51,36.65,162.49,31.8,173,32s18.21,5.44,22.69,15a23.42,23.42,0,0,1,1,17.83c-.72,2.14-.41,3.34,1.36,4.71q23,17.94,45.9,36c1.4,1.11,2.45,2,4.53.73,10.29-6.07,20.43-5.25,29.86,2.1C279,108.88,279.61,109.26,280.32,109.74Zm-18.55,5.39a12.53,12.53,0,0,0-12.54,12.63,12.79,12.79,0,0,0,12.83,12.81,12.94,12.94,0,0,0,12.62-12.74A12.7,12.7,0,0,0,261.77,115.13ZM83.15,185.32A12.71,12.71,0,0,0,83,210.74a12.71,12.71,0,1,0,.18-25.42Zm102-127.67a12.53,12.53,0,0,0-12.32-12.83,12.72,12.72,0,0,0-13.11,12.51,13,13,0,0,0,12.78,13A12.75,12.75,0,0,0,185.15,57.65ZM364,76.71a12.74,12.74,0,0,0-12.45-12.82,12.76,12.76,0,1,0-.08,25.51A12.64,12.64,0,0,0,364,76.71Z"/><path class="cls-1" d="M148.82,233c-3.17-8.8-2.28-17.24,3.34-25,5.91-8.16,16.86-11.83,27-9.09,9.81,2.64,17.66,11.42,18.41,21.27.27,3.39,1.59,4.54,4.69,5.36,11.55,3.08,23,6.43,34.49,9.82,2.2.65,3.52.52,5-1.46,6.79-8.88,17.3-12.16,28-8.75,2.1.67,3.06.15,4.31-1.42q26.81-33.66,53.75-67.2a4,4,0,0,0,.63-4.94c-4.8-10.31-3.26-19.92,4.1-28.49a25,25,0,0,1,27.32-6.89c10.38,3.74,16.13,11.43,17.17,22.36,1.76,18.43-17.46,32.64-34.77,25.67-2.6-1-3.82-.69-5.5,1.42q-26.18,33-52.55,65.76c-.62.77-1.19,1.58-1.89,2.51,4.65,7.13,6.44,14.7,3.71,23.06-3.62,11.14-14.9,18.79-26.17,17.58-12.7-1.36-22.19-10.72-23.42-22.88-.13-1.31-1.09-3.33-2.08-3.63-13.22-4-26.52-7.71-38.61-11.16-4.93,3.69-8.8,7.57-13.45,9.84-7.75,3.79-15.76,3-23.17-1.62-1.59-1-2.77-1.61-4.6-.22-16.2,12.28-32.47,24.45-48.89,36.78.72,2.21,1.61,4.38,2.14,6.62C111.08,302,102,316.1,88.31,318.81,74,321.64,60,312.17,57.8,298.11a25.41,25.41,0,0,1,22.33-29.52A26.86,26.86,0,0,1,94.31,271c1.19.54,3.27.65,4.2,0,16.64-12.31,33.17-24.78,49.71-37.21A4.53,4.53,0,0,0,148.82,233ZM351.45,127.85a12.74,12.74,0,0,0-12.89,12.74,13,13,0,0,0,12.64,12.73A12.76,12.76,0,0,0,364,140.47,12.53,12.53,0,0,0,351.45,127.85Zm-281.1,166a12.73,12.73,0,1,0,12.83-12.75A12.73,12.73,0,0,0,70.35,293.89Zm114.8-70.39a12.6,12.6,0,0,0-12.8-12.77,12.7,12.7,0,1,0,.24,25.4A12.59,12.59,0,0,0,185.15,223.5Zm64.09,25.6a12.59,12.59,0,1,0,12.67-12.51A12.58,12.58,0,0,0,249.24,249.1Z"/><path class="cls-1" d="M102,383.09H89.64V357.94H102Z"/><path class="cls-1" d="M76.35,383.06H64.06V357.93H76.35Z"/><path class="cls-1" d="M153.65,357.93h12.29v25H153.65Z"/><path class="cls-1" d="M179.18,357.9h12.25v25.16H179.18Z"/><path class="cls-1" d="M243,358h12.33v25H243Z"/><path class="cls-1" d="M268.48,383V357.94h12.27V383Z"/><path class="cls-1" d="M332.38,383.05V358h12.4v25Z"/><path class="cls-1" d="M358,383V358h12.32v25Z"/></g></g></svg>