<svg xmlns="http://www.w3.org/2000/svg" viewBox="0 0 382.99 383.25"><defs><style>.cls-1{fill:#01af57;}</style></defs><g id="Layer_2" data-name="Layer 2"><g id="OBJECTS"><path class="cls-1" d="M383,383.25H0V370.69H19.05V252.57c0-8.13,1.7-9.82,9.91-9.82H86.23c7.39,0,9.34,2,9.34,9.29q0,56.7,0,113.4v4.76h12.76v-206c0-9.38,1.37-10.73,10.89-10.73h56.52c7.36,0,9.21,1.87,9.21,9.35q0,101.25,0,202.48v5h12.81V227.52c0-8.69,1.61-10.32,10.2-10.32h56.89c7.59,0,9.54,2,9.54,9.54V370.26h12.75V137.82c0-8.24,1.63-9.89,9.78-9.89h57.26c7.74,0,9.48,1.73,9.48,9.41V370.53H383ZM350.71,140.94H300.2V370.31h50.51ZM171.84,370.33V166.5H121.32V370.33Zm38.9-.07H261.4v-140H210.74ZM32,370.19H82.61V255.81H32Z"/><path class="cls-1" d="M329.84,0c8.54,2.12,16.25,5.69,21.41,13.18,7.71,11.18,8.6,23,1.76,34.81-6.41,11.08-16.43,16.54-29.25,15.67-4.45-.3-8.87-2.07-13.14-3.63-2-.73-3.18-1-4.83.68q-20.4,20.61-41,41c-1.61,1.59-1.77,2.75-.7,4.79,8.58,16.43,2.3,35.5-14.29,43.8-15.35,7.68-34.63.91-42.46-15.13a28.77,28.77,0,0,1-2-21.45c.79-2.6.4-4.16-1.91-5.89-11.67-8.74-23.17-17.71-34.23-26.21-5,2.38-9.54,5.1-14.41,6.65a28.35,28.35,0,0,1-23.09-2.64c-2-1.13-3.15-1-4.75.65q-20.41,20.61-41,41c-1.62,1.61-1.71,2.73-.67,4.77,5.89,11.57,5.28,23-2.28,33.5-8,11-19.22,15.34-32.54,12.48-13-2.8-21.39-11.3-24.22-24.18-2.87-13,1.31-24.31,12.13-32.33,10.28-7.61,21.59-8.5,33.12-2.8,2.53,1.25,4,1.24,6-.86q19.8-20.13,39.94-39.95c2-2,2.17-3.4.83-6-6.28-11.94-4.08-25.9,5.4-36.34,8.53-9.38,23-12.37,35.41-7.32a31.94,31.94,0,0,1,19.4,29.83c-.11,3.3-1.34,6.55-1.76,9.87-.16,1.23,0,3.15.85,3.78C189.26,81,201,90,212.46,98.74c4.51-2.53,8.49-5.41,12.93-7.12a29.31,29.31,0,0,1,25.27,1.7c2.28,1.23,3.57,1.09,5.41-.77Q276.17,72.18,296.5,52c1.4-1.4,2.3-2.4,1.11-4.71-10.39-20,.56-42.49,22.67-46.75A7.3,7.3,0,0,0,321.61,0ZM306.39,32.14a18.93,18.93,0,0,0,19,19,19.18,19.18,0,0,0,19.22-18.89A19.4,19.4,0,0,0,325.32,13,19.16,19.16,0,0,0,306.39,32.14ZM146.7,38.54a19.13,19.13,0,0,0-.24,38.26,19.13,19.13,0,1,0,.24-38.26Zm108.39,82.81A18.93,18.93,0,0,0,236,102.45a19,19,0,1,0,.21,38A18.85,18.85,0,0,0,255.09,121.35ZM76.34,146.92a19,19,0,0,0-19-19A19,19,0,1,0,57.46,166,18.94,18.94,0,0,0,76.34,146.92Z"/></g></g></svg>