<svg xmlns="http://www.w3.org/2000/svg" xmlns:xlink="http://www.w3.org/1999/xlink" viewBox="0 0 717.42 154.97"><defs><style>.cls-1{fill:url(#linear-gradient);}.cls-2{fill:url(#linear-gradient-2);}.cls-3{fill:url(#linear-gradient-3);}.cls-4{fill:url(#linear-gradient-4);}.cls-5{fill:url(#linear-gradient-5);}.cls-6{fill:url(#linear-gradient-6);}.cls-7{fill:url(#linear-gradient-7);}</style><linearGradient id="linear-gradient" x1="-36.12" y1="78.52" x2="739.03" y2="69.33" gradientUnits="userSpaceOnUse"><stop offset="0" stop-color="#00fdff"/><stop offset="1" stop-color="#3271e2"/></linearGradient><linearGradient id="linear-gradient-2" x1="-36.1" y1="79.64" x2="739.04" y2="70.45" xlink:href="#linear-gradient"/><linearGradient id="linear-gradient-3" x1="-36.09" y1="80.76" x2="739.06" y2="71.57" xlink:href="#linear-gradient"/><linearGradient id="linear-gradient-4" x1="-36.08" y1="81.93" x2="739.07" y2="72.74" xlink:href="#linear-gradient"/><linearGradient id="linear-gradient-5" x1="-36.07" y1="82.82" x2="739.08" y2="73.63" xlink:href="#linear-gradient"/><linearGradient id="linear-gradient-6" x1="-36.04" y1="84.87" x2="739.11" y2="75.68" xlink:href="#linear-gradient"/><linearGradient id="linear-gradient-7" x1="-36.03" y1="85.53" x2="739.11" y2="76.34" xlink:href="#linear-gradient"/></defs><g id="Layer_2" data-name="Layer 2"><g id="Layer_1-2" data-name="Layer 1"><path class="cls-1" d="M102.09,138l-4.73,17H0V17L4.73,0h97.36V45L97.36,62H72.85V86l-4.73,7h34Zm-7.53-7.53V100.51H46.93V78.45H65.32V57.09H46.93V37.47H94.56V7.53H12.43V130.46Z"/><path class="cls-2" d="M196.82,107.69l-4.73,17L161.45,155H94.56V52.71L129.05,0h67.77ZM189.29,7.53H133.13L107,47.46v83h56.09l26.21-25.91V83.35H154.45v20.49h-13V37.47h13V75h34.84Z"/><path class="cls-3" d="M291.38,107.69l-4.73,17L256,155H189.12V35.55L224.49,0h66.89Zm-7.53-3.14v-97h-56l-26.31,26.2v96.73h56.09Zm-34.67-4h-13v-63h13Z"/><path class="cls-4" d="M385.94,45l-1.75,4.56h1.75v63.91l-4.9,17L359.15,155H283.67V112.1l4.73-9.31h-4.73V52.62L318.17,0h67.77Zm-7.53-7.53V7.53H322.24L296.11,47.46V78.27h52v24.52h-52v27.67h64.5l17.8-19.94V57.09H329.9V37.47Z"/><path class="cls-5" d="M528.3,112.07l-4.73,17H471.39L445.12,155H378.23V17L383,0H528.3Zm-7.53-7.53v-97H485.92V74.6H473V7.53H438.29v93h-13v-93H390.67V130.46h56.11l26.27-25.92Z"/><path class="cls-6" d="M623,138l-4.73,17H520.77V52.71L555.27,0H623Zm-7.53-7.53V7.53H559.34L533.2,47.46v83h34.5v-52h13.13v52ZM580.83,57.09H567.7l13.13-25.22Z"/><path class="cls-7" d="M717.42,25V77.22l-4.73,17h-42.9V138l-4.73,17H615.33V17l4.73-17h66.36Zm-7.53,3.6L683.76,7.53h-56V130.46h34.5V69.69h47.63ZM675.22,57.09h-13V37.47h13Z"/></g></g></svg>