<svg xmlns="http://www.w3.org/2000/svg" viewBox="0 0 1523.48 218.79"><defs><style>.cls-1{fill:#3379e0;}.cls-2{fill:#347ae3;}.cls-3{fill:#3379e1;}.cls-4{fill:#3278e0;}.cls-5{fill:#fbfcfe;}</style></defs><g id="Layer_2" data-name="Layer 2"><g id="Layer_1-2" data-name="Layer 1"><path class="cls-1" d="M806.25,30.15,793.7,56.58c-7.18-3.41-13.92-6.93-20.91-9.86-29.64-12.43-60.28-16.3-91.84-9.29a50.09,50.09,0,0,0-16.74,7.37c-13.24,9-11.94,26.25,2.16,33.75,10.23,5.44,21.52,6.66,32.79,7.75,21.19,2,42.49,3.33,63.55,6.28a119,119,0,0,1,30.92,9.21c24.07,10.63,32,30.58,29.25,55.11-3.24,29.37-22.41,44.88-48.7,53.22-22.92,7.27-46.6,7.31-70.27,5.59-22.6-1.64-44.41-6.72-64.46-17.71-5.94-3.26-11.49-7.21-17.39-10.95l11.24-28.3c11.43,5.74,22.21,12.1,33.67,16.73,30.48,12.31,61.93,14.86,94,6.79,8.34-2.1,16-5.91,22-12.22,7.23-7.6,9.49-16.81,6.39-26.81-3.33-10.77-12.1-16-22.29-17.74-13.91-2.45-28-3.49-42.08-5.25-20.77-2.6-41.55-5.21-62.29-8-3.74-.51-7.4-2-11-3.32-17.86-6.73-27.51-20.16-28.21-39-1-27.57,12.11-47,38.93-57.55,18-7.08,36.85-8.46,56-8.19,29.87.43,58,7,83.56,23.1C803.3,28.08,804.62,29,806.25,30.15ZM636.79,169.09c-1.36,3.31-2.52,6.95-4.28,10.27-2.14,4-.86,6.34,2.92,8.22,6.4,3.17,12.51,7,19.06,9.78,24.88,10.66,51.17,12.66,77.83,12,16.74-.41,33.23-2.34,48.75-9.15,19.25-8.44,32.59-21.85,34.89-43.72,2.28-21.58-3.68-39.05-26.07-48.74-8.76-3.8-18.18-7-27.59-8.23-21.09-2.81-42.37-4.17-63.56-6.25-12.44-1.22-24.88-2.72-36.11-8.83C644.48,74.57,643,50.87,660,39.22a57,57,0,0,1,16.57-7.78c21.07-5.91,42.46-5.56,63.84-1.67a175.6,175.6,0,0,1,50,17.43c2.37-5,4.61-9.75,6.87-14.55-1-.65-1.67-1.13-2.38-1.55-23.54-13.94-49.21-19.71-76.33-20-17.73-.18-35.28.71-52.13,7.07C638.86,28.61,626,50.12,631.35,77c2,10.07,7.3,18.29,16.76,22.24,9.28,3.87,19.07,7.4,28.95,8.75,23.06,3.17,46.35,4.64,69.47,7.4,10.18,1.21,20.67,2.56,30.18,6.11,21.06,7.85,27.41,32.42,13.82,50.25-7.31,9.59-17.58,14.61-28.94,17.46-32.36,8.14-64.12,5.25-95.1-6.39C656.44,179.07,646.93,173.84,636.79,169.09Z"/><path class="cls-2" d="M1351.35,39.37V77.86c-9.62,0-18.89.06-28.16-.11-.78,0-2.21-1.59-2.22-2.45-.12-22.13-.09-44.26-.09-67,11.5,0,22.59,0,33.69,0,12.16,0,24.32.1,36.48.14q36.48.13,73,.25c35.09.16,58.51,22.62,59.42,57.67a106.74,106.74,0,0,1-2.52,27.7c-5.45,22.46-23.85,36.78-48.73,39.16-6.12.59-12.29.88-18.44.9q-48.23.12-96.46,0h-5.91v76.74c-9.64,0-18.75,0-27.87,0-3.61,0-2.6-2.83-2.6-4.76-.06-18.66,0-37.32,0-56V103.66h6.44q65.23,0,130.46-.06a64.56,64.56,0,0,0,14.35-1.46c14.83-3.43,22.55-15.64,21.17-32.75-1.47-18.28-11.08-29.35-29.35-29.77C1426.66,38.78,1389.35,39.37,1351.35,39.37Zm-23.22,71.26v92.91h16.22c0-22.22,0-44,0-65.86,0-8.6,2-10.52,10.68-10.52,32.82,0,65.65,0,98.48,0,6.32,0,12.65-.33,18.94-.93,21.69-2.07,37.93-15.23,42.27-35.74,1.94-9.14,2-18.89,1.5-28.28-1.19-21.64-14.51-38.41-34.61-44.08a69.8,69.8,0,0,0-18.22-2.35c-36.49-.33-73-.35-109.47-.46-8.58,0-17.17,0-25.74,0v55.4h16.16c0-9.56,0-18.85,0-28.14,0-8.33,2-10.35,10.34-10.36,34.33,0,68.65-.12,103,.11a67.81,67.81,0,0,1,17.2,2.53c16,4.34,25.27,17.61,25.34,36.41.06,14-3.52,26.53-16.8,34-7.76,4.33-16.32,5.46-25.09,5.46h-130.2Z"/><path class="cls-3" d="M829.15,8.44h33.24Q884.75,91.59,907.19,175l1-.07Q930.36,91.71,952.49,8.44h38.13q4.74,17.88,9.45,35.67c6.37,24.11,12.78,48.22,19,72.37a16.3,16.3,0,0,1,.09,7.73c-3.79,15-7.84,29.92-11.83,44.86-.25.94-.66,1.83-1.38,3.76-11.47-43.22-22.67-85.46-33.88-127.69l-1.21,0c-2.11,7.72-4.26,15.43-6.32,23.17q-18.46,69.19-36.8,138.44c-.85,3.2-2.06,4.3-5.34,4.24-10-.2-20-.22-30,0-3.37.08-4.54-1.28-5.41-4.28Q858.68,109.75,830.2,12.83C829.83,11.57,829.59,10.28,829.15,8.44Zm92.06,195.47c.84-3,1.61-5.71,2.34-8.42Q944,119.1,964.29,42.68c1-3.89,2.85-6.38,7-6.4,4.37,0,6.47,2.45,7.34,6.66,1,4.88,2.54,9.64,3.82,14.46l23.63,89.18c1.87-6.94,3.17-12.78,5-18.43a25.24,25.24,0,0,0,.12-15.12C1005,89.92,998.91,66.75,992.78,43.6c-2.5-9.42-5-18.85-7.41-28.09H957.73C951.27,39.79,944.85,63.89,938.45,88q-11.58,43.64-23.12,87.29c-1.06,4-2.2,8.1-7.38,8-4.48-.1-6.52-3.16-7.63-7.28q-17.4-65.07-34.93-130.09c-2.75-10.21-5.56-20.4-8.27-30.33H838.4c.3,1.28.48,2.23.75,3.17q11,37.58,22.05,75.16,15.28,52.19,30.45,104.41c1.19,4.11,2.77,6,7.43,5.73C906.21,203.58,913.39,203.91,921.21,203.91Z"/><path class="cls-4" d="M1311,210.88c-10.32,0-20,.16-29.62-.16-1.58-.05-3.78-1.85-4.52-3.4q-9-18.91-17.55-38.06c-1.25-2.8-2.75-3.91-5.94-3.9q-56.22.18-112.45,0c-3.14,0-4.68,1-6,3.84-5.6,12.61-11.6,25.05-17.15,37.68-1.38,3.14-3.06,4.15-6.37,4.07-9.13-.2-18.28-.07-28.32-.07.84-2,1.39-3.47,2-4.87,10.51-22.44,21.1-44.85,31.47-67.35,1.38-3,3.17-3.6,6.15-3.59q57,.19,113.94.21H1243c-15.28-32.58-30.27-64.55-45.68-97.43-3.78,7.89-7.19,14.94-10.54,22-7.19,15.17-14.44,30.33-21.46,45.59-1.33,2.9-3,3.79-6.06,3.73-9.13-.2-18.27-.07-28.22-.07,1.17-2.81,2-5.07,3-7.25q21.32-45.1,42.6-90.23c1.14-2.42,2.4-3.49,5.21-3.44,10.16.18,20.33-.06,30.48.2,1.67,0,4.14,1.41,4.82,2.84q46.69,98.51,93.07,197.15A20.9,20.9,0,0,1,1311,210.88ZM1141.78,102.13c4.35,0,7.82-.29,11.21.08,4.4.47,6.7-1,8.62-5.22,9-19.65,18.43-39.11,27.65-58.66,1.6-3.39,3.08-7,7.52-7s6.61,3.1,8.33,6.78c6.59,14.18,13.28,28.3,19.93,42.45q11.57,24.61,23.1,49.23c2.72,5.83,1.38,10.16-3.77,11.83a19.1,19.1,0,0,1-5.91.63q-55.47,0-110.94-.2c-3.46,0-5.25.94-6.72,4.2-6.72,14.84-13.75,29.55-20.66,44.31-1.93,4.14-3.85,8.28-6.09,13.1,5,0,9.21-.22,13.33.07,3.23.23,4.75-1.17,6-3.93,5.09-11.39,10.51-22.62,15.47-34.06,2.32-5.36,6-7.37,11.65-7.36q56.73.13,113.45,0c5.45,0,9.07,2,11.32,7.12,5,11.43,10.26,22.74,15.58,34,.75,1.6,2.34,3.79,3.71,3.93,4.87.48,9.81.19,15.21.19a28.23,28.23,0,0,0-1-3.07q-43-91.16-86.06-182.25a6.5,6.5,0,0,0-4.79-2.91c-7-.33-14,0-21-.2-3-.08-4.62.76-6,3.72-9.29,20.08-18.87,40-28.33,60C1149.09,86.4,1145.63,93.88,1141.78,102.13Z"/><path class="cls-3" d="M1026.46,210.89c7.46-27.86,14.7-54.81,21.89-81.77Q1063.86,71,1079.22,12.94c.92-3.51,2.06-4.89,5.87-4.76,9.3.3,18.62.1,28.45.1a39.24,39.24,0,0,1-.7,4q-28.21,97.23-56.43,194.47c-.84,2.91-2,4.4-5.39,4.27C1043.06,210.69,1035.08,210.89,1026.46,210.89Zm23.55-7.26,54.75-188.18h-19c-16.69,62.65-33.37,125.23-50.15,188.18Z"/><path class="cls-5" d="M494.06,218.52c-59.61,0-108.63-49.31-108.76-109.31S434.49-.07,494.59,0C555.08.07,603.81,49.3,603.2,110.75,602.63,168,555.93,218.8,494.06,218.52Zm.25-186.68a77.14,77.14,0,0,0-77,77.32c.11,42.27,34.82,77.28,76.67,77.33a77.15,77.15,0,0,0,77.33-77C571.34,66.12,537.36,31.85,494.31,31.84Z"/><path class="cls-5" d="M138.4,183.52V215.3H0V3.31H138.37V34.52H30.28V80.15h84.11v31.92H30.22v71.45Z"/><path class="cls-5" d="M325.22,106.42h30a110.13,110.13,0,0,1-5.77,38.39c-10.58,30.91-29.51,54.63-60.42,67.06-41.55,16.72-87.35,2.43-114.44-35.11-37.49-52-25.66-125.09,26-160.53C217.32,4.79,235.92-.29,256.37,0V30.89c-7.51,1.29-15,1.64-21.77,3.9C205.32,44.52,189.93,66.33,184,95.55c-6.26,30.81,9,65.56,35.44,81.54,33.65,20.37,77.15,7,96-29.39A84.84,84.84,0,0,0,325,110.87C325,109.41,325.13,108,325.22,106.42Z"/><path class="cls-5" d="M495.15,124.18c-8,0-15.22-7.3-15.16-15.28a15.33,15.33,0,0,1,30.66.25C510.64,118.13,504.36,124.22,495.15,124.18Z"/></g></g></svg>