<svg xmlns="http://www.w3.org/2000/svg" xmlns:xlink="http://www.w3.org/1999/xlink" viewBox="0 0 819.46 109.51"><defs><style>.cls-1{fill:url(#linear-gradient);}.cls-2{fill:#fff;}</style><linearGradient id="linear-gradient" x1="-6.9" y1="54.07" x2="301.25" y2="54.07" gradientUnits="userSpaceOnUse"><stop offset="0" stop-color="#8b2de4"/><stop offset="0.27" stop-color="#4475cd"/><stop offset="0.47" stop-color="#348fb3"/><stop offset="0.56" stop-color="#33b85f"/><stop offset="0.72" stop-color="#d0e850"/><stop offset="0.99" stop-color="#ef4635"/><stop offset="1"/></linearGradient></defs><g id="Layer_2" data-name="Layer 2"><g id="Layer_1-2" data-name="Layer 1"><path class="cls-1" d="M0,106.65V1.5H68.7V17H14.85v22.8h42V55.5h-42V91.05H68.7v15.6Z"/><path class="cls-1" d="M75.75,54a56.2,56.2,0,0,1,3.53-19.43,55.58,55.58,0,0,1,10-17.32A51.78,51.78,0,0,1,105.08,4.8,44.28,44.28,0,0,1,125.85,0h1.5V15.6h-1.5A31,31,0,0,0,111.38,19a37,37,0,0,0-11.18,8.77,38.48,38.48,0,0,0-7.12,12.3A40.82,40.82,0,0,0,90.6,54a41.23,41.23,0,0,0,2.48,14.1,38.48,38.48,0,0,0,7.12,12.3,36.07,36.07,0,0,0,11.18,8.7,31.56,31.56,0,0,0,14.47,3.3,31.92,31.92,0,0,0,14.62-3.3,35.22,35.22,0,0,0,11.11-8.7,40.85,40.85,0,0,0,7.12-12.3A40.38,40.38,0,0,0,161.25,54V52.65H176.1V54a58.15,58.15,0,0,1-13.57,37,50.37,50.37,0,0,1-15.83,12.44,45.37,45.37,0,0,1-20.85,4.73,44.28,44.28,0,0,1-20.77-4.8A51.13,51.13,0,0,1,89.33,90.82a56.31,56.31,0,0,1-10-17.4A56.1,56.1,0,0,1,75.75,54Z"/><path class="cls-1" d="M191.1,54a52.29,52.29,0,0,1,4.05-20.25A54.77,54.77,0,0,1,223.5,4.5a54.09,54.09,0,0,1,43.2,0,54,54,0,0,1,17,12A56,56,0,0,1,294.9,33.75a52.65,52.65,0,0,1,0,40.5,56.82,56.82,0,0,1-11.18,17.32,53.3,53.3,0,0,1-17,12.08,54.09,54.09,0,0,1-43.2,0,54.2,54.2,0,0,1-17.1-12.08,56.1,56.1,0,0,1-11.25-17.32A52.29,52.29,0,0,1,191.1,54Zm15.75,0a37.13,37.13,0,0,0,2.92,14.48,39.91,39.91,0,0,0,8,12.29,38.2,38.2,0,0,0,12.08,8.48,38.34,38.34,0,0,0,30.44,0,38.31,38.31,0,0,0,12.08-8.48,38.94,38.94,0,0,0,8-12.22A37.74,37.74,0,0,0,283.2,54a38.23,38.23,0,0,0-2.85-14.62,38.65,38.65,0,0,0-7.88-12.23,37.89,37.89,0,0,0-12.07-8.4,38.73,38.73,0,0,0-30.6,0,38.21,38.21,0,0,0-12.15,8.48,38.92,38.92,0,0,0-8,12.29A37.94,37.94,0,0,0,206.85,54Zm38.7,7.5a7,7,0,0,1-5.33-2.33A7.37,7.37,0,0,1,238.05,54a7.72,7.72,0,0,1,2-5.18,6.93,6.93,0,0,1,5.48-2.32,7.15,7.15,0,0,1,5.55,2.32A7.57,7.57,0,0,1,253.2,54a7.45,7.45,0,0,1-2.1,5.25A7.23,7.23,0,0,1,245.55,61.5Z"/><path class="cls-2" d="M429.35,76.19q0,15.74-14.15,24.6-14,8.71-40.62,8.72-35.9,0-56.77-14.73l6.29-14.16a95.47,95.47,0,0,0,50.63,14.3q17.73,0,27.31-4.86,9.3-4.71,9.29-12.87,0-9.43-12.15-12.73Q392.75,62.9,364.86,61q-25-1.71-34.75-6.57-11.73-5.73-11.73-19.6,0-14.14,13.3-22.3Q344.7,4.4,369,4.4q30,0,51.05,12.87l-7,13.16q-22.17-11.3-45.33-11.3-15.59,0-23.6,3.58t-8.15,10q0,6.57,8.73,9.58,6,2.3,20.3,3.15,20.88,1.27,27.46,2.14,19.16,2.58,27.88,9.3Q429.36,63.75,429.35,76.19Z"/><path class="cls-2" d="M539,62l-7.72,25.89L512,23.14l-25,83.51H465.82l-33-100.1h18.45l25.31,83.8,25-83.8h21Zm19.45,44.62H542.75l4.86-16.16v.14L572.78,6.55h18.45Z"/><path class="cls-2" d="M593.94,69.18l69.36.15L637.7,20.85,618.83,56.31h-18L627.26,6.55H648l53,100.1H682.89L671.31,84.2H604l-11.58,22.45H574.21Z"/><path class="cls-2" d="M819.46,37.87q0,15-9.3,22.88Q801,68.61,783,68.61H723.5v38H706.77V53.74h76.51q19.31,0,19.3-15.59,0-16.57-20.45-16.59H723.5V40.73H706.77V6.55l79.37.14q15.3,0,24.45,8.44Q819.46,23.58,819.46,37.87Z"/></g></g></svg>