<svg xmlns="http://www.w3.org/2000/svg" xmlns:xlink="http://www.w3.org/1999/xlink" viewBox="0 0 2035.62 281.3"><defs><style>.cls-1{fill:#fff;}.cls-2{fill:url(#linear-gradient);}.cls-3{fill:url(#linear-gradient-2);}.cls-4{fill:url(#linear-gradient-3);}.cls-5{fill:url(#linear-gradient-4);}.cls-6{fill:url(#linear-gradient-5);}.cls-7{fill:url(#linear-gradient-6);}.cls-8{fill:url(#linear-gradient-7);}.cls-9{fill:url(#linear-gradient-8);}.cls-10{fill:url(#linear-gradient-9);}.cls-11{fill:url(#linear-gradient-10);}.cls-12{fill:url(#linear-gradient-11);}.cls-13{fill:url(#linear-gradient-12);}.cls-14{fill:url(#linear-gradient-13);}.cls-15{fill:url(#linear-gradient-14);}</style><linearGradient id="linear-gradient" x1="749.57" y1="155.5" x2="874.42" y2="176.18" gradientTransform="translate(1503.03 306.09) rotate(180)" gradientUnits="userSpaceOnUse"><stop offset="0" stop-color="#da5e26"/><stop offset="0.19" stop-color="#db722d"/><stop offset="0.58" stop-color="#dea63e"/><stop offset="1" stop-color="#e1e453"/></linearGradient><linearGradient id="linear-gradient-2" x1="568.47" y1="99.09" x2="703.28" y2="160.36" gradientTransform="translate(1503.03 306.09) rotate(180)" gradientUnits="userSpaceOnUse"><stop offset="0" stop-color="#ec1e24"/><stop offset="0.31" stop-color="#ec2025"/><stop offset="0.48" stop-color="#ed2826"/><stop offset="0.6" stop-color="#ee3529"/><stop offset="0.71" stop-color="#f0482e"/><stop offset="0.81" stop-color="#f36133"/><stop offset="0.9" stop-color="#f67f3a"/><stop offset="0.98" stop-color="#f9a342"/><stop offset="1" stop-color="#faab44"/></linearGradient><linearGradient id="linear-gradient-3" x1="12.08" y1="176.29" x2="601.87" y2="187.01" gradientUnits="userSpaceOnUse"><stop offset="0" stop-color="#058c5f"/><stop offset="0.17" stop-color="#088d5f"/><stop offset="0.31" stop-color="#12915e"/><stop offset="0.44" stop-color="#23985d"/><stop offset="0.56" stop-color="#3ba25c"/><stop offset="0.67" stop-color="#5aae5a"/><stop offset="0.78" stop-color="#7fbd58"/><stop offset="0.89" stop-color="#accf56"/><stop offset="1" stop-color="#dee353"/><stop offset="1" stop-color="#e1e453"/></linearGradient><linearGradient id="linear-gradient-4" x1="12.07" y1="176.85" x2="601.86" y2="187.57" gradientUnits="userSpaceOnUse"><stop offset="0" stop-color="#289b48"/><stop offset="0.19" stop-color="#2b9c48"/><stop offset="0.34" stop-color="#35a049"/><stop offset="0.47" stop-color="#46a74a"/><stop offset="0.6" stop-color="#5eb04b"/><stop offset="0.72" stop-color="#7cbc4d"/><stop offset="0.84" stop-color="#a2cb4f"/><stop offset="0.96" stop-color="#cedc52"/><stop offset="1" stop-color="#e1e453"/></linearGradient><linearGradient id="linear-gradient-5" x1="196.55" y1="20.49" x2="270.08" y2="95.55" gradientUnits="userSpaceOnUse"><stop offset="0" stop-color="#7506ff"/><stop offset="0.68" stop-color="#3885f7"/><stop offset="1" stop-color="#1ac3f3"/></linearGradient><linearGradient id="linear-gradient-6" x1="165.27" y1="49.98" x2="228.08" y2="249.13" xlink:href="#linear-gradient-5"/><linearGradient id="linear-gradient-7" x1="409.3" y1="278.38" x2="140.7" y2="199.74" xlink:href="#linear-gradient-5"/><linearGradient id="linear-gradient-8" x1="-66.49" y1="1.09" x2="877.17" y2="144.07" xlink:href="#linear-gradient-5"/><linearGradient id="linear-gradient-9" x1="-72.64" y1="41.74" x2="871.01" y2="184.72" xlink:href="#linear-gradient-5"/><linearGradient id="linear-gradient-10" x1="334.37" y1="145.92" x2="159.73" y2="147.96" xlink:href="#linear-gradient-5"/><linearGradient id="linear-gradient-11" x1="359.33" y1="27.39" x2="477.29" y2="105.52" xlink:href="#linear-gradient-4"/><linearGradient id="linear-gradient-12" x1="416.05" y1="232.82" x2="547.8" y2="238.94" xlink:href="#linear-gradient-4"/><linearGradient id="linear-gradient-13" x1="586.23" y1="230.27" x2="842.06" y2="256.31" gradientTransform="translate(1503.03 306.09) rotate(180)" gradientUnits="userSpaceOnUse"><stop offset="0" stop-color="#da5e26"/><stop offset="0.21" stop-color="#da6127"/><stop offset="0.38" stop-color="#db6b2a"/><stop offset="0.54" stop-color="#dc7c30"/><stop offset="0.69" stop-color="#dd9438"/><stop offset="0.83" stop-color="#deb242"/><stop offset="0.96" stop-color="#e0d74f"/><stop offset="1" stop-color="#e1e453"/></linearGradient><linearGradient id="linear-gradient-14" x1="676.3" y1="27.08" x2="840.98" y2="101.38" xlink:href="#linear-gradient-13"/></defs><g id="Layer_2" data-name="Layer 2"><g id="Layer_1-2" data-name="Layer 1"><path class="cls-1" d="M1168.53,53.26l-47.46,49.66H981.67l-11.11,13.17L981.36,130H1122l42.78,60.12-44,62.74H898.13l47.14-49.34h139.89l10.62-13.23-10.62-14.22H944.65L901.87,116l44-62.74ZM1157,190.19l-38.16-53.61H978.37L962.45,116l15.92-19.6h140.12l35-36.6H949l-39.65,56.27,38.47,53.52H1088l15.92,20.91L1088,209.77H948.08l-35,36.59H1118Z"/><path class="cls-1" d="M1529.17,53.26l-103,199.64h-55.57l-19.67-38.21-19.37,38.21h-55.58L1172.59,53.26h64l67.13,128.08,15-28.75L1267.2,53.26h64l19.67,37.9,20-37.9h63.7l-51.39,99.57,15,28.22,67-127.79Zm-10.47,6.53h-49.79l-70.56,135.28-22.16-42.46,47.91-92.82h-49.89l-23.34,44.76-23.41-44.76h-49.65l48.06,92.73L1303.71,195,1232.84,59.79H1183.2l96.74,186.57h48.21l22.91-45.07,23.25,45.07h47.75Z"/><path class="cls-1" d="M1761.16,252.9H1699V197.35H1593.49V252.9h-61.83V99.33l43.72-46.07h142.07l43.71,46.07Zm-6.24-6.54V102l-40.07-42.23H1578L1537.91,102V246.36h49.33V190.82h118v55.54Zm-49.65-91.48h-118V96.71h118Zm-6.24-6.54V103.25H1593.49v45.09Z"/><path class="cls-1" d="M2035.62,116l-50.89,72.21H1856.39v64.7h-61.82V53.26h197Zm-7.75,0-39.43-56.19H1800.81V246.36h49.34V181.67h131Zm-49.08,3.93-17.17,24.51H1850.15v-48h111.47Zm-7.72.15-12.41-17.14H1856.39v35h102.12Z"/><path class="cls-2" d="M632.26,203.41a132.7,132.7,0,0,0,11.53,20.82,125.21,125.21,0,0,1,50.13-25.59A72.92,72.92,0,0,1,678.07,153a71,71,0,0,1,5.59-27.81,74,74,0,0,1,38.79-39.4c.37-.16.74-.33,1.12-.48a126.23,126.23,0,0,1-43.75-38.76A131.81,131.81,0,0,0,660.3,62.37a130.12,130.12,0,0,0-28,40.81,126.67,126.67,0,0,0,0,100.23Z"/><path class="cls-3" d="M803.87,102.18c-1.13-1.15-2.29-2.26-3.5-3.33a124.94,124.94,0,0,0,55-21.92A132.62,132.62,0,0,1,870.6,102.8a125.63,125.63,0,0,1,.17,100.26,132.11,132.11,0,0,1-27.83,40.61A128.53,128.53,0,0,1,831.07,254a126.22,126.22,0,0,0-39.52-39.74,72.22,72.22,0,0,0,12.32-10.07,75,75,0,0,0,15.51-23.38A70.92,70.92,0,0,0,825,153a70,70,0,0,0-5.59-27.47A75.1,75.1,0,0,0,803.87,102.18Z"/><path class="cls-4" d="M437.93,208a83.93,83.93,0,0,0-23.65,50.64,125.67,125.67,0,0,1-18.6-16.59,132.65,132.65,0,0,1-25.53-40.76A131.2,131.2,0,0,1,369,107.69a84.52,84.52,0,0,0,46.1,42.68c0,.89-.05,1.78-.05,2.68a77.53,77.53,0,0,0,19.05,51Q435.93,206.13,437.93,208Z"/><path class="cls-5" d="M603.38,150.38v3A134.38,134.38,0,0,1,576,234.64,84.57,84.57,0,0,0,538.44,193a75.54,75.54,0,0,0,5.77-12,77.5,77.5,0,0,0,5-27.6v-3a10.07,10.07,0,0,1,10.52-10.52h33.12C599.07,139.86,603.38,144.18,603.38,150.38Z"/><path class="cls-6" d="M343,158.85a28.25,28.25,0,0,1-7.79,13.56,28.88,28.88,0,0,1-18.75,7.79H281.26A123.87,123.87,0,0,0,234.41,46.52a122.16,122.16,0,0,0-21-12.22,119.06,119.06,0,0,1,50,2.1,103.57,103.57,0,0,1,37.2,18.31C347.11,91,343.38,153.22,343,158.85Z"/><path class="cls-7" d="M283.51,123.09A64.34,64.34,0,0,0,275.57,113c-7.46-10.16-20.12-22.3-39.06-25.08-28.45-4.17-52.34,15.55-63.17,36.32a1.25,1.25,0,0,1-.08.12,65,65,0,0,0-5.33,55.88h-.07A123.74,123.74,0,0,0,262,277.92a137,137,0,0,1-67.92-6c-1.93-.69-5.09-1.82-9.07-3.52C168.31,261.3,136.91,244.2,120,207.6c-20.64-44.57-12.39-102,24.81-138.76,18.55-18.35,43.06-30.34,68.6-34.54a123.89,123.89,0,0,1,70.13,88.79Z"/><path class="cls-8" d="M328.24,231c.29,10.07-6.55,17.6-9.8,21.06C307.65,263.53,287,273.88,262,277.92a123.74,123.74,0,0,1-94.17-97.72h2.65a70.21,70.21,0,0,0,19.85,28.56c19.23,16.49,46.4,20.83,70.71,12.33a77,77,0,0,0,22.76-12.62c1.7-.93,13.21-7.05,26-2C320,210.49,327.94,220.5,328.24,231Z"/><path class="cls-9" d="M126.6,61.43c-1-.39-21.63-6.8-15.86-28.83S131.51,0,131.51,0s-4.81,6.92,7.3,27.69-6.51,33.71-10,34c0,0-.8-24.54-.8-24.32S126.6,61.43,126.6,61.43Z"/><path class="cls-10" d="M125.34,72.2C124.08,74,99.67,116.48,57.11,94,15.21,71.79.45,36.28,0,35.17c.47.5,12.9,13,60.53-2,22-6.94,37.59-2.47,47.92,5.21C107,54.92,120.6,61.62,125.19,63.44a8.6,8.6,0,0,1,.08,2.21s-49.46-5.3-50-5.3Z"/><path class="cls-11" d="M285.81,146.87a123.38,123.38,0,0,1-4.55,33.33H167.93a65,65,0,0,1,5.33-55.88c-.23.45-.46.92-.68,1.37l111.53,2A72.46,72.46,0,0,0,275.57,113a64.34,64.34,0,0,1,7.94,10.13A123.47,123.47,0,0,1,285.81,146.87Z"/><path class="cls-12" d="M496,35.27V69.12c0,6.36-4.32,10.81-10.52,10.81h-3.34a59.78,59.78,0,0,0-26.47,5.95A70.82,70.82,0,0,0,434.19,102a72.66,72.66,0,0,0-14.1,23.31c-.23.6-.45,1.22-.67,1.83a77.62,77.62,0,0,0-4.32,23.24A84.52,84.52,0,0,1,369,107.69c.31-.85.63-1.7,1-2.54a134.17,134.17,0,0,1,25.16-40.92,123.45,123.45,0,0,1,38.46-28.67,111.38,111.38,0,0,1,48.57-10.77h3.34C491.69,24.79,496,29.1,496,35.27Z"/><path class="cls-13" d="M576,234.64c-2.09,2.76-4.31,5.42-6.63,8-.81.9-1.63,1.77-2.46,2.64A120,120,0,0,1,531,270.81a114.38,114.38,0,0,1-48.84,10.49,109.4,109.4,0,0,1-48.1-10.77,127.9,127.9,0,0,1-19.77-11.85A83.93,83.93,0,0,1,437.93,208a67.93,67.93,0,0,0,17.41,12.18,60.53,60.53,0,0,0,26.81,5.95,59.75,59.75,0,0,0,26.48-5.93,70.94,70.94,0,0,0,21.5-16,70,70,0,0,0,5.43-6.8q1.52-2.16,2.88-4.44A84.57,84.57,0,0,1,576,234.64Z"/><path class="cls-14" d="M679.82,46.58a137.83,137.83,0,0,1,21.56-11.66,128.22,128.22,0,0,1,100,0,135.61,135.61,0,0,1,41,27.27,124.92,124.92,0,0,1,13,14.74,124.94,124.94,0,0,1-55,21.92,78.25,78.25,0,0,0-20-12.88,69.69,69.69,0,0,0-28.87-6.06,71.28,71.28,0,0,0-27.95,5.43A126.23,126.23,0,0,1,679.82,46.58Z"/><path class="cls-15" d="M643.79,224.23a125.21,125.21,0,0,1,50.13-25.59,68.39,68.39,0,0,0,4.92,5.58,74.7,74.7,0,0,0,23.43,16,72,72,0,0,0,29.25,5.92,70.9,70.9,0,0,0,29.06-5.9,78.11,78.11,0,0,0,11-6A126.22,126.22,0,0,1,831.07,254a133.83,133.83,0,0,1-29.27,17.12,129.82,129.82,0,0,1-100.19.19A132,132,0,0,1,660.3,244,128.68,128.68,0,0,1,643.79,224.23Z"/></g></g></svg>