<svg xmlns="http://www.w3.org/2000/svg" xmlns:xlink="http://www.w3.org/1999/xlink" viewBox="0 0 2244.49 314.77"><defs><style>.cls-1{fill:none;}.cls-2{isolation:isolate;}.cls-3{fill:url(#linear-gradient);}.cls-4{clip-path:url(#clip-path);}.cls-5{mix-blend-mode:multiply;}.cls-6{fill:url(#linear-gradient-2);}.cls-7{fill:url(#linear-gradient-3);}.cls-8{fill:url(#linear-gradient-4);}.cls-9{fill:url(#linear-gradient-5);}.cls-10{fill:url(#linear-gradient-6);}.cls-11{fill:url(#linear-gradient-7);}.cls-12{fill:url(#linear-gradient-8);}.cls-13{fill:url(#linear-gradient-9);}.cls-14{fill:url(#linear-gradient-10);}.cls-15{fill:url(#linear-gradient-11);}.cls-16{fill:url(#linear-gradient-12);}.cls-17{fill:url(#linear-gradient-13);}.cls-18{fill:url(#linear-gradient-14);}.cls-19{fill:url(#linear-gradient-15);}.cls-20{fill:url(#linear-gradient-16);}.cls-21{fill:url(#linear-gradient-17);}.cls-22{fill:url(#linear-gradient-18);}.cls-23{fill:url(#linear-gradient-19);}.cls-24{fill:url(#linear-gradient-20);}.cls-25{fill:url(#linear-gradient-21);}.cls-26{fill:url(#linear-gradient-22);}.cls-27{fill:url(#linear-gradient-23);}.cls-28{fill:url(#linear-gradient-24);}.cls-29{fill:url(#linear-gradient-25);}.cls-30{fill:url(#linear-gradient-26);}.cls-31{fill:url(#linear-gradient-27);}.cls-32{fill:url(#linear-gradient-28);}.cls-33{fill:url(#linear-gradient-29);}.cls-34{fill:url(#linear-gradient-30);}.cls-35{fill:url(#linear-gradient-31);}.cls-36{fill:url(#linear-gradient-32);}.cls-37{fill:url(#linear-gradient-33);}.cls-38{fill:url(#linear-gradient-34);}.cls-39{fill:url(#linear-gradient-35);}.cls-40{fill:url(#linear-gradient-36);}.cls-41{fill:url(#linear-gradient-37);}.cls-42{fill:url(#linear-gradient-38);}.cls-43{fill:url(#linear-gradient-39);}.cls-44{fill:url(#linear-gradient-40);}.cls-45{fill:url(#linear-gradient-41);}.cls-46{fill:url(#linear-gradient-42);}.cls-47{fill:url(#linear-gradient-43);}.cls-48{fill:url(#linear-gradient-44);}.cls-49{fill:url(#linear-gradient-45);}.cls-50{fill:url(#linear-gradient-46);}.cls-51{fill:url(#linear-gradient-47);}.cls-52{fill:url(#linear-gradient-48);}.cls-53{fill:url(#linear-gradient-49);}.cls-54{fill:url(#linear-gradient-50);}.cls-55{fill:url(#linear-gradient-51);}.cls-56{fill:url(#linear-gradient-52);}.cls-57{fill:url(#linear-gradient-53);}.cls-58{fill:url(#linear-gradient-54);}.cls-59{fill:url(#linear-gradient-55);}.cls-60{fill:url(#linear-gradient-56);}.cls-61{fill:url(#linear-gradient-57);}.cls-62{fill:url(#linear-gradient-58);}.cls-63{fill:url(#linear-gradient-59);}.cls-64{fill:url(#linear-gradient-60);}.cls-65{fill:url(#linear-gradient-61);}.cls-66{fill:url(#linear-gradient-62);}.cls-67{fill:url(#linear-gradient-63);}.cls-68{fill:url(#linear-gradient-64);}.cls-69{fill:url(#linear-gradient-65);}.cls-70{fill:url(#linear-gradient-66);}.cls-71{fill:url(#linear-gradient-67);}.cls-72{fill:url(#linear-gradient-68);}.cls-73{fill:url(#linear-gradient-69);}.cls-74{fill:url(#linear-gradient-70);}.cls-75{fill:url(#linear-gradient-71);}.cls-76{fill:url(#linear-gradient-72);}.cls-77{fill:url(#linear-gradient-73);}.cls-78{fill:url(#linear-gradient-74);}.cls-79{fill:url(#linear-gradient-75);}.cls-80{fill:url(#linear-gradient-76);}.cls-81{fill:url(#linear-gradient-77);}.cls-82{fill:url(#linear-gradient-78);}.cls-83{fill:url(#linear-gradient-79);}.cls-84{fill:url(#linear-gradient-80);}.cls-85{fill:url(#linear-gradient-81);}.cls-86{fill:url(#linear-gradient-82);}.cls-87{fill:url(#linear-gradient-83);}.cls-88{fill:url(#linear-gradient-84);}.cls-89{fill:url(#linear-gradient-85);}.cls-90{fill:url(#linear-gradient-86);}.cls-91{fill:url(#linear-gradient-87);}.cls-92{fill:url(#linear-gradient-88);}.cls-93{fill:url(#linear-gradient-89);}.cls-94{fill:url(#linear-gradient-90);}.cls-95{fill:url(#linear-gradient-91);}.cls-96{fill:url(#linear-gradient-92);}.cls-97{fill:url(#linear-gradient-93);}.cls-98{fill:url(#linear-gradient-94);}.cls-99{fill:url(#linear-gradient-95);}.cls-100{fill:url(#linear-gradient-96);}.cls-101{fill:url(#linear-gradient-97);}.cls-102{fill:url(#linear-gradient-98);}.cls-103{fill:url(#linear-gradient-99);}.cls-104{fill:url(#linear-gradient-100);}.cls-105{fill:url(#linear-gradient-101);}.cls-106{fill:url(#linear-gradient-102);}.cls-107{fill:url(#linear-gradient-103);}.cls-108{fill:url(#linear-gradient-104);}.cls-109{fill:url(#linear-gradient-105);}.cls-110{fill:url(#linear-gradient-106);}.cls-111{fill:url(#linear-gradient-107);}.cls-112{fill:url(#linear-gradient-108);}.cls-113{fill:url(#linear-gradient-109);}.cls-114{fill:url(#linear-gradient-110);}.cls-115{fill:url(#linear-gradient-111);}.cls-116{fill:url(#linear-gradient-112);}.cls-117{fill:url(#linear-gradient-113);}.cls-118{fill:url(#linear-gradient-114);}.cls-119{fill:url(#linear-gradient-115);}.cls-120{fill:url(#linear-gradient-116);}.cls-121{fill:url(#linear-gradient-117);}.cls-122{fill:url(#linear-gradient-118);}.cls-123{fill:url(#linear-gradient-119);}.cls-124{fill:url(#linear-gradient-120);}.cls-125{fill:url(#linear-gradient-121);}.cls-126{fill:url(#linear-gradient-122);}.cls-127{fill:url(#linear-gradient-123);}.cls-128{fill:url(#linear-gradient-124);}.cls-129{fill:url(#linear-gradient-125);}.cls-130{fill:url(#linear-gradient-126);}.cls-131{fill:url(#linear-gradient-127);}.cls-132{fill:url(#linear-gradient-128);}.cls-133{fill:url(#linear-gradient-129);}.cls-134{fill:url(#linear-gradient-130);}.cls-135{fill:url(#linear-gradient-131);}.cls-136{fill:url(#linear-gradient-132);}.cls-137{fill:url(#linear-gradient-133);}.cls-138{fill:url(#linear-gradient-134);}.cls-139{fill:url(#linear-gradient-135);}.cls-140{fill:url(#linear-gradient-136);}.cls-141{fill:url(#linear-gradient-137);}.cls-142{fill:url(#linear-gradient-138);}.cls-143{fill:url(#linear-gradient-139);}.cls-144{fill:url(#linear-gradient-140);}.cls-145{fill:url(#linear-gradient-141);}.cls-146{fill:url(#linear-gradient-142);}.cls-147{fill:url(#linear-gradient-143);}.cls-148{fill:url(#linear-gradient-144);}.cls-149{fill:url(#linear-gradient-145);}.cls-150{fill:url(#linear-gradient-146);}.cls-151{fill:url(#linear-gradient-147);}.cls-152{fill:url(#linear-gradient-148);}.cls-153{fill:url(#linear-gradient-149);}.cls-154{fill:url(#linear-gradient-150);}.cls-155{fill:url(#linear-gradient-151);}.cls-156{fill:url(#linear-gradient-152);}.cls-157{fill:url(#linear-gradient-153);}.cls-158{fill:url(#linear-gradient-154);}.cls-159{fill:url(#linear-gradient-155);}.cls-160{fill:url(#linear-gradient-156);}.cls-161{fill:url(#linear-gradient-157);}.cls-162{fill:url(#linear-gradient-158);}.cls-163{fill:url(#linear-gradient-159);}.cls-164{fill:url(#linear-gradient-160);}.cls-165{fill:url(#linear-gradient-161);}.cls-166{opacity:0.2;}.cls-167{fill:url(#linear-gradient-162);}.cls-168{fill:url(#linear-gradient-163);}.cls-169{fill:url(#linear-gradient-164);}.cls-170{fill:url(#linear-gradient-165);}.cls-171{fill:url(#linear-gradient-166);}.cls-172{fill:url(#linear-gradient-167);}.cls-173{fill:url(#linear-gradient-168);}.cls-174{fill:url(#linear-gradient-169);}.cls-175{fill:url(#linear-gradient-170);}.cls-176{fill:url(#linear-gradient-171);}.cls-177{fill:url(#linear-gradient-172);}.cls-178{fill:url(#linear-gradient-173);}.cls-179{fill:url(#linear-gradient-174);}.cls-180{fill:url(#linear-gradient-175);}.cls-181{fill:url(#linear-gradient-176);}.cls-182{fill:url(#linear-gradient-177);}.cls-183{fill:url(#linear-gradient-178);}.cls-184{fill:url(#linear-gradient-179);}.cls-185{fill:url(#linear-gradient-180);}.cls-186{fill:url(#linear-gradient-181);}.cls-187{fill:url(#linear-gradient-182);}.cls-188{fill:url(#linear-gradient-183);}.cls-189{fill:url(#linear-gradient-184);}.cls-190{fill:url(#linear-gradient-185);}.cls-191{fill:url(#linear-gradient-186);}.cls-192{fill:url(#linear-gradient-187);}.cls-193{fill:url(#linear-gradient-188);}.cls-194{fill:url(#linear-gradient-189);}.cls-195{fill:url(#linear-gradient-190);}.cls-196{fill:url(#linear-gradient-191);}.cls-197{fill:url(#linear-gradient-192);}.cls-198{fill:url(#linear-gradient-193);}.cls-199{fill:url(#linear-gradient-194);}.cls-200{fill:url(#linear-gradient-195);}.cls-201{fill:url(#linear-gradient-196);}.cls-202{fill:url(#linear-gradient-197);}.cls-203{fill:url(#linear-gradient-198);}.cls-204{fill:url(#linear-gradient-199);}.cls-205{fill:url(#linear-gradient-200);}.cls-206{fill:url(#linear-gradient-201);}.cls-207{fill:url(#linear-gradient-202);}.cls-208{fill:url(#linear-gradient-203);}.cls-209{fill:url(#linear-gradient-204);}.cls-210{fill:url(#linear-gradient-205);}.cls-211{fill:url(#linear-gradient-206);}.cls-212{fill:url(#linear-gradient-207);}.cls-213{fill:url(#linear-gradient-208);}.cls-214{fill:url(#linear-gradient-209);}.cls-215{fill:url(#linear-gradient-210);}.cls-216{fill:url(#linear-gradient-211);}.cls-217{fill:url(#linear-gradient-212);}.cls-218{fill:url(#linear-gradient-213);}.cls-219{fill:url(#linear-gradient-214);}.cls-220{fill:url(#linear-gradient-215);}.cls-221{fill:url(#linear-gradient-216);}.cls-222{fill:url(#linear-gradient-217);}.cls-223{fill:url(#linear-gradient-218);}.cls-224{fill:url(#linear-gradient-219);}.cls-225{fill:url(#linear-gradient-220);}.cls-226{fill:url(#linear-gradient-221);}.cls-227{fill:url(#linear-gradient-222);}.cls-228{fill:url(#linear-gradient-223);}.cls-229{fill:url(#linear-gradient-224);}.cls-230{fill:url(#linear-gradient-225);}.cls-231{fill:url(#linear-gradient-226);}.cls-232{fill:url(#linear-gradient-227);}.cls-233{fill:url(#linear-gradient-228);}.cls-234{fill:url(#linear-gradient-229);}.cls-235{fill:url(#linear-gradient-230);}.cls-236{fill:url(#linear-gradient-231);}.cls-237{fill:url(#linear-gradient-232);}.cls-238{fill:url(#linear-gradient-233);}.cls-239{fill:url(#linear-gradient-234);}.cls-240{fill:url(#linear-gradient-235);}.cls-241{fill:url(#linear-gradient-236);}.cls-242{fill:url(#linear-gradient-237);}.cls-243{fill:url(#linear-gradient-238);}.cls-244{fill:url(#linear-gradient-239);}.cls-245{fill:url(#linear-gradient-240);}.cls-246{fill:url(#linear-gradient-241);}.cls-247{fill:url(#linear-gradient-242);}.cls-248{fill:url(#linear-gradient-243);}.cls-249{fill:url(#linear-gradient-244);}.cls-250{fill:url(#linear-gradient-245);}.cls-251{fill:url(#linear-gradient-246);}.cls-252{fill:url(#linear-gradient-247);}.cls-253{fill:url(#linear-gradient-248);}.cls-254{fill:url(#linear-gradient-249);}.cls-255{fill:url(#linear-gradient-250);}.cls-256{fill:url(#linear-gradient-251);}.cls-257{fill:url(#linear-gradient-252);}.cls-258{fill:url(#linear-gradient-253);}.cls-259{fill:url(#linear-gradient-254);}.cls-260{fill:url(#linear-gradient-255);}.cls-261{fill:url(#linear-gradient-256);}.cls-262{fill:url(#linear-gradient-257);}.cls-263{fill:url(#linear-gradient-258);}.cls-264{fill:url(#linear-gradient-259);}.cls-265{fill:url(#linear-gradient-260);}.cls-266{fill:url(#linear-gradient-261);}.cls-267{fill:url(#linear-gradient-262);}.cls-268{fill:url(#linear-gradient-263);}.cls-269{fill:url(#linear-gradient-264);}.cls-270{fill:url(#linear-gradient-265);}.cls-271{fill:url(#linear-gradient-266);}.cls-272{fill:url(#linear-gradient-267);}.cls-273{fill:url(#linear-gradient-268);}.cls-274{fill:url(#linear-gradient-269);}.cls-275{fill:url(#linear-gradient-270);}.cls-276{fill:url(#linear-gradient-271);}.cls-277{fill:url(#linear-gradient-272);}.cls-278{fill:url(#linear-gradient-273);}.cls-279{fill:url(#linear-gradient-274);}.cls-280{fill:url(#linear-gradient-275);}.cls-281{fill:url(#linear-gradient-276);}.cls-282{fill:url(#linear-gradient-277);}.cls-283{fill:url(#linear-gradient-278);}.cls-284{fill:url(#linear-gradient-279);}.cls-285{fill:url(#linear-gradient-280);}.cls-286{fill:url(#linear-gradient-281);}.cls-287{fill:url(#linear-gradient-282);}.cls-288{fill:url(#linear-gradient-283);}.cls-289{fill:url(#linear-gradient-284);}.cls-290{fill:url(#linear-gradient-285);}.cls-291{fill:url(#linear-gradient-286);}.cls-292{fill:url(#linear-gradient-287);}.cls-293{fill:url(#linear-gradient-288);}</style><linearGradient id="linear-gradient" x1="158.96" y1="-1.48" x2="247.42" y2="269.57" gradientUnits="userSpaceOnUse"><stop offset="0" stop-color="#0069ab"/><stop offset="0.36" stop-color="#004992"/><stop offset="1" stop-color="#001468"/></linearGradient><clipPath id="clip-path" transform="translate(61.87 8.42)"><circle class="cls-1" cx="148.92" cy="148.92" r="148.2"/></clipPath><linearGradient id="linear-gradient-2" x1="89.03" y1="-27.65" x2="300.69" y2="183.38" gradientUnits="userSpaceOnUse"><stop offset="0" stop-color="#52bbe8"/><stop offset="0.2" stop-color="#69c3eb"/><stop offset="0.6" stop-color="#a3d8f1"/><stop offset="1" stop-color="#e1eff8"/></linearGradient><linearGradient id="linear-gradient-3" x1="109.66" y1="-48.34" x2="321.32" y2="162.69" xlink:href="#linear-gradient-2"/><linearGradient id="linear-gradient-4" x1="130.29" y1="-69.03" x2="341.95" y2="142" xlink:href="#linear-gradient-2"/><linearGradient id="linear-gradient-5" x1="150.91" y1="-89.72" x2="362.57" y2="121.31" xlink:href="#linear-gradient-2"/><linearGradient id="linear-gradient-6" x1="231.76" y1="-100.34" x2="443.42" y2="110.69" xlink:href="#linear-gradient-2"/><linearGradient id="linear-gradient-7" x1="-21.7" y1="83.42" x2="189.96" y2="294.44" xlink:href="#linear-gradient-2"/><linearGradient id="linear-gradient-8" x1="81.43" y1="-20.03" x2="293.09" y2="191" xlink:href="#linear-gradient-2"/><linearGradient id="linear-gradient-9" x1="102.06" y1="-40.72" x2="313.72" y2="170.31" xlink:href="#linear-gradient-2"/><linearGradient id="linear-gradient-10" x1="122.68" y1="-61.4" x2="334.34" y2="149.63" xlink:href="#linear-gradient-2"/><linearGradient id="linear-gradient-11" x1="143.31" y1="-82.09" x2="354.97" y2="128.94" xlink:href="#linear-gradient-2"/><linearGradient id="linear-gradient-12" x1="217.48" y1="-86.02" x2="429.14" y2="125.01" xlink:href="#linear-gradient-2"/><linearGradient id="linear-gradient-13" x1="94.45" y1="-33.09" x2="306.11" y2="177.94" xlink:href="#linear-gradient-2"/><linearGradient id="linear-gradient-14" x1="115.08" y1="-53.78" x2="326.74" y2="157.25" xlink:href="#linear-gradient-2"/><linearGradient id="linear-gradient-15" x1="195.93" y1="-64.4" x2="407.59" y2="146.63" xlink:href="#linear-gradient-2"/><linearGradient id="linear-gradient-16" x1="86.85" y1="-25.46" x2="298.51" y2="185.57" xlink:href="#linear-gradient-2"/><linearGradient id="linear-gradient-17" x1="107.48" y1="-46.15" x2="319.14" y2="164.88" xlink:href="#linear-gradient-2"/><linearGradient id="linear-gradient-18" x1="181.65" y1="-50.07" x2="393.31" y2="160.95" xlink:href="#linear-gradient-2"/><linearGradient id="linear-gradient-19" x1="-65.14" y1="126.98" x2="146.52" y2="338.01" xlink:href="#linear-gradient-2"/><linearGradient id="linear-gradient-20" x1="79.25" y1="-17.84" x2="290.91" y2="193.19" xlink:href="#linear-gradient-2"/><linearGradient id="linear-gradient-21" x1="160.1" y1="-28.46" x2="371.76" y2="182.57" xlink:href="#linear-gradient-2"/><linearGradient id="linear-gradient-22" x1="-93.37" y1="155.3" x2="118.29" y2="366.33" xlink:href="#linear-gradient-2"/><linearGradient id="linear-gradient-23" x1="-72.74" y1="134.61" x2="138.92" y2="345.64" xlink:href="#linear-gradient-2"/><linearGradient id="linear-gradient-24" x1="-52.12" y1="113.92" x2="159.54" y2="324.95" xlink:href="#linear-gradient-2"/><linearGradient id="linear-gradient-25" x1="-31.49" y1="93.23" x2="180.17" y2="304.26" xlink:href="#linear-gradient-2"/><linearGradient id="linear-gradient-26" x1="145.82" y1="-14.13" x2="357.48" y2="196.9" xlink:href="#linear-gradient-2"/><linearGradient id="linear-gradient-27" x1="-100.97" y1="162.92" x2="110.69" y2="373.95" xlink:href="#linear-gradient-2"/><linearGradient id="linear-gradient-28" x1="-80.35" y1="142.23" x2="131.31" y2="353.26" xlink:href="#linear-gradient-2"/><linearGradient id="linear-gradient-29" x1="-59.72" y1="121.55" x2="151.94" y2="332.58" xlink:href="#linear-gradient-2"/><linearGradient id="linear-gradient-30" x1="-64.72" y1="197.03" x2="146.94" y2="408.06" xlink:href="#linear-gradient-2"/><linearGradient id="linear-gradient-31" x1="-44.09" y1="176.35" x2="167.57" y2="387.37" xlink:href="#linear-gradient-2"/><linearGradient id="linear-gradient-32" x1="-23.47" y1="155.66" x2="188.19" y2="366.69" xlink:href="#linear-gradient-2"/><linearGradient id="linear-gradient-33" x1="-2.84" y1="134.97" x2="208.82" y2="346" xlink:href="#linear-gradient-2"/><linearGradient id="linear-gradient-34" x1="79.67" y1="52.21" x2="291.33" y2="263.24" xlink:href="#linear-gradient-2"/><linearGradient id="linear-gradient-35" x1="100.29" y1="31.53" x2="311.95" y2="242.56" xlink:href="#linear-gradient-2"/><linearGradient id="linear-gradient-36" x1="201.76" y1="-70.25" x2="413.43" y2="140.78" xlink:href="#linear-gradient-2"/><linearGradient id="linear-gradient-37" x1="228.65" y1="-97.21" x2="440.31" y2="113.82" xlink:href="#linear-gradient-2"/><linearGradient id="linear-gradient-38" x1="244.82" y1="-113.43" x2="456.48" y2="97.59" xlink:href="#linear-gradient-2"/><linearGradient id="linear-gradient-39" x1="132.68" y1="-71.43" x2="344.34" y2="139.6" xlink:href="#linear-gradient-2"/><linearGradient id="linear-gradient-40" x1="159.56" y1="-98.39" x2="371.22" y2="112.64" xlink:href="#linear-gradient-2"/><linearGradient id="linear-gradient-41" x1="239.87" y1="-108.46" x2="451.53" y2="102.56" xlink:href="#linear-gradient-2"/><linearGradient id="linear-gradient-42" x1="122.77" y1="-61.49" x2="334.43" y2="149.54" xlink:href="#linear-gradient-2"/><linearGradient id="linear-gradient-43" x1="209.99" y1="-78.5" x2="421.65" y2="132.53" xlink:href="#linear-gradient-2"/><linearGradient id="linear-gradient-44" x1="-5.1" y1="137.23" x2="206.56" y2="348.26" xlink:href="#linear-gradient-2"/><linearGradient id="linear-gradient-45" x1="-48.43" y1="110.22" x2="163.23" y2="321.25" xlink:href="#linear-gradient-2"/><linearGradient id="linear-gradient-46" x1="-21.55" y1="83.26" x2="190.11" y2="294.29" xlink:href="#linear-gradient-2"/><linearGradient id="linear-gradient-47" x1="193.17" y1="-61.62" x2="404.83" y2="149.4" xlink:href="#linear-gradient-2"/><linearGradient id="linear-gradient-48" x1="-21.85" y1="154.03" x2="189.82" y2="365.06" xlink:href="#linear-gradient-2"/><linearGradient id="linear-gradient-49" x1="-58.34" y1="120.16" x2="153.32" y2="331.19" xlink:href="#linear-gradient-2"/><linearGradient id="linear-gradient-50" x1="-31.46" y1="93.2" x2="180.2" y2="304.23" xlink:href="#linear-gradient-2"/><linearGradient id="linear-gradient-51" x1="-51.8" y1="184.07" x2="159.86" y2="395.1" xlink:href="#linear-gradient-2"/><linearGradient id="linear-gradient-52" x1="-95.13" y1="157.06" x2="116.53" y2="368.09" xlink:href="#linear-gradient-2"/><linearGradient id="linear-gradient-53" x1="-68.25" y1="130.1" x2="143.41" y2="341.13" xlink:href="#linear-gradient-2"/><linearGradient id="linear-gradient-54" x1="66.16" y1="-4.71" x2="277.82" y2="206.32" xlink:href="#linear-gradient-2"/><linearGradient id="linear-gradient-55" x1="-87.19" y1="219.57" x2="124.47" y2="430.6" xlink:href="#linear-gradient-2"/><linearGradient id="linear-gradient-56" x1="-66.17" y1="198.49" x2="145.49" y2="409.52" xlink:href="#linear-gradient-2"/><linearGradient id="linear-gradient-57" x1="-43.17" y1="175.42" x2="168.49" y2="386.45" xlink:href="#linear-gradient-2"/><linearGradient id="linear-gradient-58" x1="-16.29" y1="148.46" x2="195.37" y2="359.49" xlink:href="#linear-gradient-2"/><linearGradient id="linear-gradient-59" x1="91.24" y1="40.61" x2="302.9" y2="251.64" xlink:href="#linear-gradient-2"/><linearGradient id="linear-gradient-60" x1="116.59" y1="15.18" x2="328.25" y2="226.21" xlink:href="#linear-gradient-2"/><linearGradient id="linear-gradient-61" x1="108.6" y1="23.19" x2="320.27" y2="234.22" xlink:href="#linear-gradient-2"/><linearGradient id="linear-gradient-62" x1="-87.19" y1="219.57" x2="124.47" y2="430.6" xlink:href="#linear-gradient-2"/><linearGradient id="linear-gradient-63" x1="-71.37" y1="203.7" x2="140.29" y2="414.73" xlink:href="#linear-gradient-2"/><linearGradient id="linear-gradient-64" x1="-44.49" y1="176.74" x2="167.18" y2="387.77" xlink:href="#linear-gradient-2"/><linearGradient id="linear-gradient-65" x1="-17.6" y1="149.78" x2="194.06" y2="360.81" xlink:href="#linear-gradient-2"/><linearGradient id="linear-gradient-66" x1="9.28" y1="122.81" x2="220.94" y2="333.84" xlink:href="#linear-gradient-2"/><linearGradient id="linear-gradient-67" x1="36.16" y1="95.85" x2="247.82" y2="306.88" xlink:href="#linear-gradient-2"/><linearGradient id="linear-gradient-68" x1="63.04" y1="68.89" x2="274.7" y2="279.92" xlink:href="#linear-gradient-2"/><linearGradient id="linear-gradient-69" x1="89.92" y1="41.93" x2="301.59" y2="252.96" xlink:href="#linear-gradient-2"/><linearGradient id="linear-gradient-70" x1="108.6" y1="23.19" x2="320.27" y2="234.22" xlink:href="#linear-gradient-2"/><linearGradient id="linear-gradient-71" x1="-5.42" y1="67.08" x2="206.24" y2="278.11" xlink:href="#linear-gradient-2"/><linearGradient id="linear-gradient-72" x1="80.35" y1="-18.94" x2="292.01" y2="192.08" xlink:href="#linear-gradient-2"/><linearGradient id="linear-gradient-73" x1="84.69" y1="-23.3" x2="296.35" y2="187.73" xlink:href="#linear-gradient-2"/><linearGradient id="linear-gradient-74" x1="72.75" y1="-11.32" x2="284.41" y2="199.71" xlink:href="#linear-gradient-2"/><linearGradient id="linear-gradient-75" x1="77.09" y1="-15.67" x2="288.75" y2="195.36" xlink:href="#linear-gradient-2"/><linearGradient id="linear-gradient-76" x1="162.85" y1="-31.22" x2="374.51" y2="179.81" xlink:href="#linear-gradient-2"/><linearGradient id="linear-gradient-77" x1="105.32" y1="-43.99" x2="316.98" y2="167.04" xlink:href="#linear-gradient-2"/><linearGradient id="linear-gradient-78" x1="93.37" y1="-32.01" x2="305.04" y2="179.02" xlink:href="#linear-gradient-2"/><linearGradient id="linear-gradient-79" x1="121.6" y1="-60.32" x2="333.27" y2="150.71" xlink:href="#linear-gradient-2"/><linearGradient id="linear-gradient-80" x1="125.95" y1="-64.68" x2="337.61" y2="146.35" xlink:href="#linear-gradient-2"/><linearGradient id="linear-gradient-81" x1="175.87" y1="-44.28" x2="387.53" y2="166.75" xlink:href="#linear-gradient-2"/><linearGradient id="linear-gradient-82" x1="142.23" y1="-81.01" x2="353.89" y2="130.02" xlink:href="#linear-gradient-2"/><linearGradient id="linear-gradient-83" x1="146.57" y1="-85.36" x2="358.23" y2="125.67" xlink:href="#linear-gradient-2"/><linearGradient id="linear-gradient-84" x1="196.5" y1="-64.97" x2="408.16" y2="146.06" xlink:href="#linear-gradient-2"/><linearGradient id="linear-gradient-85" x1="162.86" y1="-101.7" x2="374.52" y2="109.33" xlink:href="#linear-gradient-2"/><linearGradient id="linear-gradient-86" x1="167.2" y1="-106.05" x2="378.86" y2="104.98" xlink:href="#linear-gradient-2"/><linearGradient id="linear-gradient-87" x1="217.13" y1="-85.66" x2="428.79" y2="125.37" xlink:href="#linear-gradient-2"/><linearGradient id="linear-gradient-88" x1="183.48" y1="-122.39" x2="395.15" y2="88.64" xlink:href="#linear-gradient-2"/><linearGradient id="linear-gradient-89" x1="-33.65" y1="95.4" x2="178.01" y2="306.42" xlink:href="#linear-gradient-2"/><linearGradient id="linear-gradient-90" x1="23.88" y1="108.17" x2="235.54" y2="319.2" xlink:href="#linear-gradient-2"/><linearGradient id="linear-gradient-91" x1="-26.04" y1="87.77" x2="185.62" y2="298.8" xlink:href="#linear-gradient-2"/><linearGradient id="linear-gradient-92" x1="52.11" y1="79.85" x2="263.77" y2="290.88" xlink:href="#linear-gradient-2"/><linearGradient id="linear-gradient-93" x1="-17.36" y1="79.06" x2="194.3" y2="290.09" xlink:href="#linear-gradient-2"/><linearGradient id="linear-gradient-94" x1="65.14" y1="-3.69" x2="276.81" y2="207.34" xlink:href="#linear-gradient-2"/><linearGradient id="linear-gradient-95" x1="97.72" y1="-36.36" x2="309.38" y2="174.67" xlink:href="#linear-gradient-2"/><linearGradient id="linear-gradient-96" x1="85.77" y1="-24.38" x2="297.43" y2="186.65" xlink:href="#linear-gradient-2"/><linearGradient id="linear-gradient-97" x1="151.98" y1="-20.32" x2="363.64" y2="190.71" xlink:href="#linear-gradient-2"/><linearGradient id="linear-gradient-98" x1="118.34" y1="-57.05" x2="330" y2="153.98" xlink:href="#linear-gradient-2"/><linearGradient id="linear-gradient-99" x1="138.97" y1="-77.74" x2="350.63" y2="133.29" xlink:href="#linear-gradient-2"/><linearGradient id="linear-gradient-100" x1="131.37" y1="-70.11" x2="343.03" y2="140.92" xlink:href="#linear-gradient-2"/><linearGradient id="linear-gradient-101" x1="127.02" y1="-65.76" x2="338.69" y2="145.27" xlink:href="#linear-gradient-2"/><linearGradient id="linear-gradient-102" x1="159.6" y1="-98.43" x2="371.26" y2="112.6" xlink:href="#linear-gradient-2"/><linearGradient id="linear-gradient-103" x1="69.49" y1="-8.05" x2="281.15" y2="202.98" xlink:href="#linear-gradient-2"/><linearGradient id="linear-gradient-104" x1="168.27" y1="-36.65" x2="379.93" y2="174.38" xlink:href="#linear-gradient-2"/><linearGradient id="linear-gradient-105" x1="110.74" y1="-49.42" x2="322.4" y2="161.61" xlink:href="#linear-gradient-2"/><linearGradient id="linear-gradient-106" x1="185.63" y1="-54.07" x2="397.29" y2="156.96" xlink:href="#linear-gradient-2"/><linearGradient id="linear-gradient-107" x1="119.42" y1="-58.13" x2="331.08" y2="152.9" xlink:href="#linear-gradient-2"/><linearGradient id="linear-gradient-108" x1="209.52" y1="-78.03" x2="421.18" y2="133" xlink:href="#linear-gradient-2"/><linearGradient id="linear-gradient-109" x1="-69.48" y1="131.34" x2="142.18" y2="342.37" xlink:href="#linear-gradient-2"/><linearGradient id="linear-gradient-110" x1="-11.95" y1="144.11" x2="199.71" y2="355.14" xlink:href="#linear-gradient-2"/><linearGradient id="linear-gradient-111" x1="-0.01" y1="132.13" x2="211.65" y2="343.16" xlink:href="#linear-gradient-2"/><linearGradient id="linear-gradient-112" x1="-45.59" y1="107.38" x2="166.07" y2="318.4" xlink:href="#linear-gradient-2"/><linearGradient id="linear-gradient-113" x1="-48.85" y1="110.65" x2="162.81" y2="321.68" xlink:href="#linear-gradient-2"/><linearGradient id="linear-gradient-114" x1="78.17" y1="-16.75" x2="289.83" y2="194.27" xlink:href="#linear-gradient-2"/><linearGradient id="linear-gradient-115" x1="82.51" y1="-21.11" x2="294.17" y2="189.92" xlink:href="#linear-gradient-2"/><linearGradient id="linear-gradient-116" x1="136.78" y1="-5.07" x2="348.44" y2="205.96" xlink:href="#linear-gradient-2"/><linearGradient id="linear-gradient-117" x1="132.44" y1="-0.71" x2="344.1" y2="210.32" xlink:href="#linear-gradient-2"/><linearGradient id="linear-gradient-118" x1="160.67" y1="-29.03" x2="372.33" y2="182" xlink:href="#linear-gradient-2"/><linearGradient id="linear-gradient-119" x1="153.06" y1="-21.4" x2="364.72" y2="189.63" xlink:href="#linear-gradient-2"/><linearGradient id="linear-gradient-120" x1="95.53" y1="-34.17" x2="307.19" y2="176.86" xlink:href="#linear-gradient-2"/><linearGradient id="linear-gradient-121" x1="103.14" y1="-41.8" x2="314.8" y2="169.23" xlink:href="#linear-gradient-2"/><linearGradient id="linear-gradient-122" x1="173.69" y1="-42.09" x2="385.35" y2="168.94" xlink:href="#linear-gradient-2"/><linearGradient id="linear-gradient-123" x1="-53.2" y1="115" x2="158.47" y2="326.03" xlink:href="#linear-gradient-2"/><linearGradient id="linear-gradient-124" x1="-60.8" y1="122.63" x2="150.86" y2="333.66" xlink:href="#linear-gradient-2"/><linearGradient id="linear-gradient-125" x1="-40.17" y1="101.94" x2="171.49" y2="312.97" xlink:href="#linear-gradient-2"/><linearGradient id="linear-gradient-126" x1="-35.83" y1="97.59" x2="175.83" y2="308.61" xlink:href="#linear-gradient-2"/><linearGradient id="linear-gradient-127" x1="-19.55" y1="81.25" x2="192.12" y2="292.28" xlink:href="#linear-gradient-2"/><linearGradient id="linear-gradient-128" x1="-15.2" y1="76.9" x2="196.46" y2="287.93" xlink:href="#linear-gradient-2"/><linearGradient id="linear-gradient-129" x1="-43.44" y1="175.69" x2="168.22" y2="386.72" xlink:href="#linear-gradient-2"/><linearGradient id="linear-gradient-130" x1="-47.78" y1="180.05" x2="163.88" y2="391.08" xlink:href="#linear-gradient-2"/><linearGradient id="linear-gradient-131" x1="-97.71" y1="159.65" x2="113.95" y2="370.68" xlink:href="#linear-gradient-2"/><linearGradient id="linear-gradient-132" x1="-19.55" y1="151.73" x2="192.11" y2="362.76" xlink:href="#linear-gradient-2"/><linearGradient id="linear-gradient-133" x1="-89.03" y1="150.94" x2="122.63" y2="361.97" xlink:href="#linear-gradient-2"/><linearGradient id="linear-gradient-134" x1="-77.08" y1="138.96" x2="134.58" y2="349.99" xlink:href="#linear-gradient-2"/><linearGradient id="linear-gradient-135" x1="-56.46" y1="118.27" x2="155.2" y2="329.3" xlink:href="#linear-gradient-2"/><linearGradient id="linear-gradient-136" x1="-64.06" y1="125.9" x2="147.6" y2="336.93" xlink:href="#linear-gradient-2"/><linearGradient id="linear-gradient-137" x1="-68.4" y1="130.25" x2="143.26" y2="341.28" xlink:href="#linear-gradient-2"/><linearGradient id="linear-gradient-138" x1="-27.15" y1="88.88" x2="184.51" y2="299.91" xlink:href="#linear-gradient-2"/><linearGradient id="linear-gradient-139" x1="39.07" y1="22.46" x2="250.73" y2="233.49" xlink:href="#linear-gradient-2"/><linearGradient id="linear-gradient-140" x1="62.96" y1="-1.5" x2="274.62" y2="209.53" xlink:href="#linear-gradient-2"/><linearGradient id="linear-gradient-141" x1="67.3" y1="-5.86" x2="278.96" y2="205.17" xlink:href="#linear-gradient-2"/><linearGradient id="linear-gradient-142" x1="83.59" y1="-22.19" x2="295.25" y2="188.84" xlink:href="#linear-gradient-2"/><linearGradient id="linear-gradient-143" x1="87.93" y1="-26.54" x2="299.59" y2="184.48" xlink:href="#linear-gradient-2"/><linearGradient id="linear-gradient-144" x1="75.98" y1="-14.56" x2="287.65" y2="196.46" xlink:href="#linear-gradient-2"/><linearGradient id="linear-gradient-145" x1="-84.69" y1="146.59" x2="126.97" y2="357.62" xlink:href="#linear-gradient-2"/><linearGradient id="linear-gradient-146" x1="-96.63" y1="158.57" x2="115.03" y2="369.6" xlink:href="#linear-gradient-2"/><linearGradient id="linear-gradient-147" x1="14.1" y1="117.98" x2="225.76" y2="329.01" xlink:href="#linear-gradient-2"/><linearGradient id="linear-gradient-148" x1="18.44" y1="113.63" x2="230.1" y2="324.66" xlink:href="#linear-gradient-2"/><linearGradient id="linear-gradient-149" x1="-51.04" y1="112.84" x2="160.62" y2="323.87" xlink:href="#linear-gradient-2"/><linearGradient id="linear-gradient-150" x1="6.49" y1="125.61" x2="218.15" y2="336.64" xlink:href="#linear-gradient-2"/><linearGradient id="linear-gradient-151" x1="27.13" y1="34.44" x2="238.79" y2="245.47" xlink:href="#linear-gradient-2"/><linearGradient id="linear-gradient-152" x1="59.7" y1="1.77" x2="271.36" y2="212.8" xlink:href="#linear-gradient-2"/><linearGradient id="linear-gradient-153" x1="47.75" y1="13.75" x2="259.42" y2="224.78" xlink:href="#linear-gradient-2"/><linearGradient id="linear-gradient-154" x1="-133.54" y1="195.59" x2="78.12" y2="406.62" xlink:href="#linear-gradient-2"/><linearGradient id="linear-gradient-155" x1="-117.26" y1="179.26" x2="94.4" y2="390.29" xlink:href="#linear-gradient-2"/><linearGradient id="linear-gradient-156" x1="-112.92" y1="174.9" x2="98.74" y2="385.93" xlink:href="#linear-gradient-2"/><linearGradient id="linear-gradient-157" x1="-92.29" y1="154.21" x2="119.37" y2="365.24" xlink:href="#linear-gradient-2"/><linearGradient id="linear-gradient-158" x1="-76.01" y1="137.88" x2="135.66" y2="348.91" xlink:href="#linear-gradient-2"/><linearGradient id="linear-gradient-159" x1="-71.66" y1="133.53" x2="140" y2="344.56" xlink:href="#linear-gradient-2"/><linearGradient id="linear-gradient-160" x1="10.84" y1="50.77" x2="222.5" y2="261.8" xlink:href="#linear-gradient-2"/><linearGradient id="linear-gradient-161" x1="31.47" y1="30.08" x2="243.13" y2="241.11" xlink:href="#linear-gradient-2"/><linearGradient id="linear-gradient-162" x1="60.09" y1="71.85" x2="271.75" y2="282.88" xlink:href="#linear-gradient-2"/><linearGradient id="linear-gradient-163" x1="174.77" y1="-43.17" x2="386.43" y2="167.86" xlink:href="#linear-gradient-2"/><linearGradient id="linear-gradient-164" x1="199.94" y1="-68.42" x2="411.6" y2="142.61" xlink:href="#linear-gradient-2"/><linearGradient id="linear-gradient-165" x1="225.12" y1="-93.67" x2="436.78" y2="117.36" xlink:href="#linear-gradient-2"/><linearGradient id="linear-gradient-166" x1="240.32" y1="-108.92" x2="451.98" y2="102.11" xlink:href="#linear-gradient-2"/><linearGradient id="linear-gradient-167" x1="129.76" y1="-68.5" x2="341.42" y2="142.53" xlink:href="#linear-gradient-2"/><linearGradient id="linear-gradient-168" x1="154.91" y1="-93.78" x2="366.58" y2="117.25" xlink:href="#linear-gradient-2"/><linearGradient id="linear-gradient-169" x1="235.68" y1="-104.26" x2="447.34" y2="106.77" xlink:href="#linear-gradient-2"/><linearGradient id="linear-gradient-170" x1="120.48" y1="-59.19" x2="332.14" y2="151.83" xlink:href="#linear-gradient-2"/><linearGradient id="linear-gradient-171" x1="206.54" y1="-75.04" x2="418.2" y2="135.99" xlink:href="#linear-gradient-2"/><linearGradient id="linear-gradient-172" x1="-0.87" y1="132.99" x2="210.79" y2="344.02" xlink:href="#linear-gradient-2"/><linearGradient id="linear-gradient-173" x1="111.2" y1="-49.89" x2="322.86" y2="161.14" xlink:href="#linear-gradient-2"/><linearGradient id="linear-gradient-174" x1="191.94" y1="-60.39" x2="403.6" y2="150.64" xlink:href="#linear-gradient-2"/><linearGradient id="linear-gradient-175" x1="-26.41" y1="158.61" x2="185.25" y2="369.64" xlink:href="#linear-gradient-2"/><linearGradient id="linear-gradient-176" x1="-74.31" y1="136.18" x2="137.35" y2="347.21" xlink:href="#linear-gradient-2"/><linearGradient id="linear-gradient-177" x1="-49.13" y1="110.93" x2="162.53" y2="321.96" xlink:href="#linear-gradient-2"/><linearGradient id="linear-gradient-178" x1="-23.96" y1="85.68" x2="187.7" y2="296.71" xlink:href="#linear-gradient-2"/><linearGradient id="linear-gradient-179" x1="-44.61" y1="176.86" x2="167.06" y2="387.89" xlink:href="#linear-gradient-2"/><linearGradient id="linear-gradient-180" x1="-83.59" y1="145.49" x2="128.07" y2="356.52" xlink:href="#linear-gradient-2"/><linearGradient id="linear-gradient-181" x1="-58.41" y1="120.24" x2="153.25" y2="331.27" xlink:href="#linear-gradient-2"/><linearGradient id="linear-gradient-182" x1="-70.15" y1="202.48" x2="141.52" y2="413.5" xlink:href="#linear-gradient-2"/><linearGradient id="linear-gradient-183" x1="-118.05" y1="180.05" x2="93.62" y2="391.08" xlink:href="#linear-gradient-2"/><linearGradient id="linear-gradient-184" x1="-92.87" y1="154.79" x2="118.79" y2="365.82" xlink:href="#linear-gradient-2"/><linearGradient id="linear-gradient-185" x1="-67.69" y1="129.54" x2="143.97" y2="340.57" xlink:href="#linear-gradient-2"/><linearGradient id="linear-gradient-186" x1="33.01" y1="28.54" x2="244.67" y2="239.57" xlink:href="#linear-gradient-2"/><linearGradient id="linear-gradient-187" x1="119.07" y1="12.69" x2="330.73" y2="223.72" xlink:href="#linear-gradient-2"/><linearGradient id="linear-gradient-188" x1="-74.79" y1="207.13" x2="136.88" y2="418.16" xlink:href="#linear-gradient-2"/><linearGradient id="linear-gradient-189" x1="-60.27" y1="192.57" x2="151.39" y2="403.6" xlink:href="#linear-gradient-2"/><linearGradient id="linear-gradient-190" x1="-35.1" y1="167.32" x2="176.57" y2="378.35" xlink:href="#linear-gradient-2"/><linearGradient id="linear-gradient-191" x1="-9.92" y1="142.07" x2="201.74" y2="353.1" xlink:href="#linear-gradient-2"/><linearGradient id="linear-gradient-192" x1="90.78" y1="41.06" x2="302.44" y2="252.09" xlink:href="#linear-gradient-2"/><linearGradient id="linear-gradient-193" x1="109.65" y1="22.14" x2="321.31" y2="233.17" xlink:href="#linear-gradient-2"/><linearGradient id="linear-gradient-194" x1="224.12" y1="-92.67" x2="435.78" y2="118.36" xlink:href="#linear-gradient-2"/><linearGradient id="linear-gradient-195" x1="240.53" y1="-109.13" x2="452.19" y2="101.9" xlink:href="#linear-gradient-2"/><linearGradient id="linear-gradient-196" x1="32.43" y1="99.59" x2="244.1" y2="310.62" xlink:href="#linear-gradient-2"/><linearGradient id="linear-gradient-197" x1="-11.83" y1="73.51" x2="199.82" y2="284.52" xlink:href="#linear-gradient-2"/><linearGradient id="linear-gradient-198" x1="230.51" y1="-99.08" x2="442.17" y2="111.95" xlink:href="#linear-gradient-2"/><linearGradient id="linear-gradient-199" x1="8.32" y1="123.78" x2="219.98" y2="334.81" xlink:href="#linear-gradient-2"/><linearGradient id="linear-gradient-200" x1="-23.92" y1="85.64" x2="187.72" y2="296.65" xlink:href="#linear-gradient-2"/><linearGradient id="linear-gradient-201" x1="-24.57" y1="156.76" x2="187.1" y2="367.79" xlink:href="#linear-gradient-2"/><linearGradient id="linear-gradient-202" x1="-68.83" y1="130.68" x2="142.82" y2="341.69" xlink:href="#linear-gradient-2"/><linearGradient id="linear-gradient-203" x1="95.19" y1="-33.82" x2="306.85" y2="177.21" xlink:href="#linear-gradient-2"/><linearGradient id="linear-gradient-204" x1="-48.68" y1="180.95" x2="162.98" y2="391.98" xlink:href="#linear-gradient-2"/><linearGradient id="linear-gradient-205" x1="-80.92" y1="142.81" x2="130.72" y2="353.82" xlink:href="#linear-gradient-2"/><linearGradient id="linear-gradient-206" x1="50.32" y1="11.17" x2="261.97" y2="222.18" xlink:href="#linear-gradient-2"/><linearGradient id="linear-gradient-207" x1="141.51" y1="-9.81" x2="353.17" y2="201.22" xlink:href="#linear-gradient-2"/><linearGradient id="linear-gradient-208" x1="-79.22" y1="211.58" x2="132.44" y2="422.61" xlink:href="#linear-gradient-2"/><linearGradient id="linear-gradient-209" x1="-62.82" y1="195.12" x2="148.85" y2="406.15" xlink:href="#linear-gradient-2"/><linearGradient id="linear-gradient-210" x1="-30" y1="162.21" x2="181.66" y2="373.24" xlink:href="#linear-gradient-2"/><linearGradient id="linear-gradient-211" x1="2.81" y1="129.31" x2="214.47" y2="340.33" xlink:href="#linear-gradient-2"/><linearGradient id="linear-gradient-212" x1="35.62" y1="96.4" x2="247.28" y2="307.43" xlink:href="#linear-gradient-2"/><linearGradient id="linear-gradient-213" x1="68.43" y1="63.49" x2="280.09" y2="274.52" xlink:href="#linear-gradient-2"/><linearGradient id="linear-gradient-214" x1="101.2" y1="30.62" x2="312.86" y2="241.65" xlink:href="#linear-gradient-2"/><linearGradient id="linear-gradient-215" x1="117.65" y1="14.12" x2="329.31" y2="225.15" xlink:href="#linear-gradient-2"/><linearGradient id="linear-gradient-216" x1="-6.71" y1="68.38" x2="204.95" y2="279.41" xlink:href="#linear-gradient-2"/><linearGradient id="linear-gradient-217" x1="155.86" y1="-24.21" x2="367.52" y2="186.82" xlink:href="#linear-gradient-2"/><linearGradient id="linear-gradient-218" x1="119.16" y1="-57.87" x2="330.82" y2="153.16" xlink:href="#linear-gradient-2"/><linearGradient id="linear-gradient-219" x1="186.33" y1="-54.77" x2="397.99" y2="156.26" xlink:href="#linear-gradient-2"/><linearGradient id="linear-gradient-220" x1="174.81" y1="-113.69" x2="386.47" y2="97.34" xlink:href="#linear-gradient-2"/><linearGradient id="linear-gradient-221" x1="231.39" y1="-99.96" x2="443.05" y2="111.07" xlink:href="#linear-gradient-2"/><linearGradient id="linear-gradient-222" x1="99.29" y1="-37.94" x2="310.95" y2="173.09" xlink:href="#linear-gradient-2"/><linearGradient id="linear-gradient-223" x1="206.21" y1="-74.71" x2="417.87" y2="136.32" xlink:href="#linear-gradient-2"/><linearGradient id="linear-gradient-224" x1="211.51" y1="-80.02" x2="423.17" y2="131.01" xlink:href="#linear-gradient-2"/><linearGradient id="linear-gradient-225" x1="160.23" y1="-99.07" x2="371.9" y2="111.96" xlink:href="#linear-gradient-2"/><linearGradient id="linear-gradient-226" x1="-45.15" y1="106.93" x2="166.51" y2="317.96" xlink:href="#linear-gradient-2"/><linearGradient id="linear-gradient-227" x1="171.75" y1="-40.15" x2="383.42" y2="170.88" xlink:href="#linear-gradient-2"/><linearGradient id="linear-gradient-228" x1="115.18" y1="-53.88" x2="326.84" y2="157.15" xlink:href="#linear-gradient-2"/><linearGradient id="linear-gradient-229" x1="167.77" y1="-36.16" x2="379.43" y2="174.87" xlink:href="#linear-gradient-2"/><linearGradient id="linear-gradient-230" x1="100.6" y1="-39.26" x2="312.26" y2="171.77" xlink:href="#linear-gradient-2"/><linearGradient id="linear-gradient-231" x1="196.93" y1="-65.4" x2="408.59" y2="145.63" xlink:href="#linear-gradient-2"/><linearGradient id="linear-gradient-232" x1="187.65" y1="-56.09" x2="399.31" y2="154.94" xlink:href="#linear-gradient-2"/><linearGradient id="linear-gradient-233" x1="131.08" y1="-69.82" x2="342.74" y2="141.21" xlink:href="#linear-gradient-2"/><linearGradient id="linear-gradient-234" x1="140.36" y1="-79.13" x2="352.02" y2="131.9" xlink:href="#linear-gradient-2"/><linearGradient id="linear-gradient-235" x1="-50.45" y1="112.25" x2="161.21" y2="323.28" xlink:href="#linear-gradient-2"/><linearGradient id="linear-gradient-236" x1="-59.73" y1="121.56" x2="151.93" y2="332.59" xlink:href="#linear-gradient-2"/><linearGradient id="linear-gradient-237" x1="-34.56" y1="96.31" x2="177.11" y2="307.33" xlink:href="#linear-gradient-2"/><linearGradient id="linear-gradient-238" x1="32.61" y1="99.41" x2="244.28" y2="310.44" xlink:href="#linear-gradient-2"/><linearGradient id="linear-gradient-239" x1="-9.38" y1="71.05" x2="202.28" y2="282.08" xlink:href="#linear-gradient-2"/><linearGradient id="linear-gradient-240" x1="57.79" y1="74.16" x2="269.45" y2="285.19" xlink:href="#linear-gradient-2"/><linearGradient id="linear-gradient-241" x1="-94.19" y1="156.12" x2="117.47" y2="367.14" xlink:href="#linear-gradient-2"/><linearGradient id="linear-gradient-242" x1="-79.61" y1="141.49" x2="132.05" y2="352.52" xlink:href="#linear-gradient-2"/><linearGradient id="linear-gradient-243" x1="7.44" y1="124.66" x2="219.1" y2="335.69" xlink:href="#linear-gradient-2"/><linearGradient id="linear-gradient-244" x1="-63.71" y1="125.55" x2="147.95" y2="336.58" xlink:href="#linear-gradient-2"/><linearGradient id="linear-gradient-245" x1="-69.01" y1="130.86" x2="142.65" y2="341.89" xlink:href="#linear-gradient-2"/><linearGradient id="linear-gradient-246" x1="43.21" y1="88.78" x2="254.87" y2="299.81" xlink:href="#linear-gradient-2"/><linearGradient id="linear-gradient-247" x1="62.17" y1="-0.71" x2="273.83" y2="210.32" xlink:href="#linear-gradient-2"/><linearGradient id="linear-gradient-248" x1="153.19" y1="-21.53" x2="364.86" y2="189.5" xlink:href="#linear-gradient-2"/><linearGradient id="linear-gradient-249" x1="158.49" y1="-26.85" x2="370.15" y2="184.18" xlink:href="#linear-gradient-2"/><linearGradient id="linear-gradient-250" x1="116.5" y1="-55.2" x2="328.16" y2="155.83" xlink:href="#linear-gradient-2"/><linearGradient id="linear-gradient-251" x1="-27.02" y1="159.22" x2="184.64" y2="370.25" xlink:href="#linear-gradient-2"/><linearGradient id="linear-gradient-252" x1="-103.47" y1="165.42" x2="108.19" y2="376.45" xlink:href="#linear-gradient-2"/><linearGradient id="linear-gradient-253" x1="18.04" y1="114.03" x2="229.7" y2="325.06" xlink:href="#linear-gradient-2"/><linearGradient id="linear-gradient-254" x1="-38.54" y1="100.3" x2="173.12" y2="311.33" xlink:href="#linear-gradient-2"/><linearGradient id="linear-gradient-255" x1="14.05" y1="118.02" x2="225.72" y2="329.05" xlink:href="#linear-gradient-2"/><linearGradient id="linear-gradient-256" x1="-53.12" y1="114.92" x2="158.55" y2="325.95" xlink:href="#linear-gradient-2"/><linearGradient id="linear-gradient-257" x1="47.59" y1="13.92" x2="259.25" y2="224.95" xlink:href="#linear-gradient-2"/><linearGradient id="linear-gradient-258" x1="87.34" y1="-25.96" x2="299" y2="185.07" xlink:href="#linear-gradient-2"/><linearGradient id="linear-gradient-259" x1="72.76" y1="-11.33" x2="284.42" y2="199.7" xlink:href="#linear-gradient-2"/><linearGradient id="linear-gradient-260" x1="-123.34" y1="185.36" x2="88.32" y2="396.38" xlink:href="#linear-gradient-2"/><linearGradient id="linear-gradient-261" x1="-132.62" y1="194.67" x2="79.04" y2="405.7" xlink:href="#linear-gradient-2"/><linearGradient id="linear-gradient-262" x1="-112.75" y1="174.73" x2="98.91" y2="385.76" xlink:href="#linear-gradient-2"/><linearGradient id="linear-gradient-263" x1="-98.17" y1="160.11" x2="113.49" y2="371.14" xlink:href="#linear-gradient-2"/><linearGradient id="linear-gradient-264" x1="-78.29" y1="140.17" x2="133.37" y2="351.2" xlink:href="#linear-gradient-2"/><linearGradient id="linear-gradient-265" x1="-72.99" y1="134.86" x2="138.67" y2="345.89" xlink:href="#linear-gradient-2"/><linearGradient id="linear-gradient-266" x1="-82.27" y1="144.17" x2="129.39" y2="355.2" xlink:href="#linear-gradient-2"/><linearGradient id="linear-gradient-267" x1="-0.52" y1="132.65" x2="211.14" y2="343.68" xlink:href="#linear-gradient-2"/><linearGradient id="linear-gradient-268" x1="27.71" y1="33.85" x2="239.37" y2="244.88" xlink:href="#linear-gradient-2"/><linearGradient id="linear-gradient-269" x1="114.76" y1="17.02" x2="326.42" y2="228.05" xlink:href="#linear-gradient-2"/><linearGradient id="linear-gradient-270" x1="-137.92" y1="199.98" x2="73.74" y2="411.01" xlink:href="#linear-gradient-2"/><linearGradient id="linear-gradient-271" x1="-107.45" y1="169.42" x2="104.21" y2="380.45" xlink:href="#linear-gradient-2"/><linearGradient id="linear-gradient-272" x1="-25.7" y1="157.9" x2="185.96" y2="368.93" xlink:href="#linear-gradient-2"/><linearGradient id="linear-gradient-273" x1="4.77" y1="127.33" x2="216.43" y2="338.36" xlink:href="#linear-gradient-2"/><linearGradient id="linear-gradient-274" x1="13.13" y1="48.48" x2="224.79" y2="259.51" xlink:href="#linear-gradient-2"/><linearGradient id="linear-gradient-275" x1="18.43" y1="43.16" x2="230.09" y2="254.19" xlink:href="#linear-gradient-2"/><linearGradient id="linear-gradient-276" x1="38.31" y1="23.23" x2="249.97" y2="234.25" xlink:href="#linear-gradient-2"/><linearGradient id="linear-gradient-277" x1="43.61" y1="17.91" x2="255.27" y2="228.94" xlink:href="#linear-gradient-2"/><linearGradient id="linear-gradient-278" x1="107.49" y1="144.84" x2="182.16" y2="144.84" gradientUnits="userSpaceOnUse"><stop offset="0" stop-color="#d6efff"/><stop offset="1" stop-color="#a3dbff"/></linearGradient><linearGradient id="linear-gradient-279" x1="192.8" y1="137.05" x2="252.22" y2="137.05" xlink:href="#linear-gradient-278"/><linearGradient id="linear-gradient-280" x1="192.8" y1="184.79" x2="252.22" y2="184.79" xlink:href="#linear-gradient-278"/><linearGradient id="linear-gradient-281" x1="80.6" y1="80.8" x2="217.23" y2="217.03" xlink:href="#linear-gradient-278"/><linearGradient id="linear-gradient-282" x1="343.73" y1="131.82" x2="2173.86" y2="233.94" xlink:href="#linear-gradient"/><linearGradient id="linear-gradient-283" x1="344.52" y1="117.73" x2="2174.65" y2="219.85" xlink:href="#linear-gradient"/><linearGradient id="linear-gradient-284" x1="345.3" y1="103.69" x2="2175.43" y2="205.82" xlink:href="#linear-gradient"/><linearGradient id="linear-gradient-285" x1="345.98" y1="91.6" x2="2176.1" y2="193.72" xlink:href="#linear-gradient"/><linearGradient id="linear-gradient-286" x1="347.06" y1="72.18" x2="2177.19" y2="174.31" xlink:href="#linear-gradient"/><linearGradient id="linear-gradient-287" x1="347.65" y1="61.53" x2="2177.78" y2="163.66" xlink:href="#linear-gradient"/><linearGradient id="linear-gradient-288" x1="348.6" y1="44.65" x2="2178.72" y2="146.78" xlink:href="#linear-gradient"/></defs><g class="cls-2"><g id="Layer_2" data-name="Layer 2"><g id="Layer_1-2" data-name="Layer 1"><circle class="cls-3" cx="210.79" cy="157.33" r="148.92"/><g class="cls-4"><g class="cls-5"><path class="cls-6" d="M170.91,78l0,0L150.13,66V42l0,0,20.74-12,0,0,20.73,12V66l0,0Zm-20.6-12.1,20.6,11.89L191.5,65.87V42.08L170.91,30.19l-20.6,11.89Z" transform="translate(61.87 8.42)"/><path class="cls-7" d="M212.28,78l0,0L191.5,66V42l.05,0,20.73-12,.05,0,20.73,12V66l0,0Zm-20.6-12.1,20.6,11.89,20.6-11.89V42.08l-20.6-11.89-20.6,11.89Z" transform="translate(61.87 8.42)"/><path class="cls-8" d="M253.66,78l0,0L232.88,66V42l.05,0,20.73-12,0,0,20.74,12V66l-.05,0Zm-20.6-12.1,20.6,11.89,20.6-11.89V42.08l-20.6-11.89-20.6,11.89Z" transform="translate(61.87 8.42)"/><path class="cls-9" d="M295,78l-.05,0L274.26,66V42l0,0L295,30l0,0,20.73,12V66l0,0Zm-20.6-12.1L295,77.76l20.59-11.89V42.08L295,30.19l-20.6,11.89Z" transform="translate(61.87 8.42)"/><polygon class="cls-10" points="403.36 83.24 398.28 86.18 377.69 74.28 377.69 50.5 398.28 38.61 403.36 41.54 403.36 41.33 398.33 38.42 398.28 38.4 377.55 50.37 377.51 50.4 377.51 74.39 398.24 86.36 398.28 86.39 403.36 83.45 403.36 83.24"/><path class="cls-11" d="M-15.29,113.8l-.05,0-20.73-12v-24l0,0,20.73-12,0,0,20.74,12v24l0,0Zm-20.6-12.1,20.6,11.89L5.31,101.7V77.92L-15.29,66l-20.6,11.9Z" transform="translate(61.87 8.42)"/><path class="cls-12" d="M191.59,113.8l0,0-20.73-12v-24l0,0,20.73-12,0,0,20.73,12v24l0,0ZM171,101.7l20.59,11.89,20.6-11.89V77.92L191.59,66,171,77.92Z" transform="translate(61.87 8.42)"/><path class="cls-13" d="M233,113.8l0,0-20.74-12v-24l.05,0,20.73-12,.05,0,20.73,12v24l-.05,0Zm-20.6-12.1L233,113.59l20.6-11.89V77.92L233,66l-20.6,11.9Z" transform="translate(61.87 8.42)"/><path class="cls-14" d="M274.35,113.8l-.05,0-20.73-12v-24l0,0,20.74-12,0,0,20.74,12v24l-.05,0Zm-20.6-12.1,20.6,11.89L295,101.7V77.92L274.35,66l-20.6,11.9Z" transform="translate(61.87 8.42)"/><path class="cls-15" d="M315.72,113.8l0,0-20.73-12v-24l0,0,20.73-12,0,0,20.73,12v24l0,0Zm-20.59-12.1,20.59,11.89,20.6-11.89V77.92L315.72,66l-20.59,11.9Z" transform="translate(61.87 8.42)"/><polygon class="cls-16" points="403.36 113 398.37 110.12 398.37 86.33 403.36 83.45 403.36 83.24 398.24 86.2 398.19 86.23 398.19 110.22 403.36 113.21 403.36 113"/><path class="cls-17" d="M253.66,149.64l0,0-20.73-12v-24l.05,0,20.73-12,0,0,20.74,12v24l-.05,0Zm-20.6-12.11,20.6,11.9,20.6-11.9V113.75l-20.6-11.89-20.6,11.89Z" transform="translate(61.87 8.42)"/><path class="cls-18" d="M295,149.64l-.05,0-20.73-12v-24l0,0,20.74-12,0,0,20.73,12v24l0,0Zm-20.6-12.11,20.6,11.9,20.59-11.9V113.75L295,101.86l-20.6,11.89Z" transform="translate(61.87 8.42)"/><polygon class="cls-19" points="403.36 154.91 398.28 157.84 377.69 145.95 377.69 122.17 398.28 110.27 403.36 113.21 403.36 113 398.33 110.09 398.28 110.07 377.55 122.04 377.51 122.06 377.51 146.06 398.24 158.03 398.28 158.05 403.36 155.12 403.36 154.91"/><path class="cls-20" d="M274.35,185.47l-.05,0-20.73-12v-24l0,0,20.74-12,0,0,20.74,12v24l-.05,0Zm-20.6-12.1,20.6,11.89L295,173.37V149.58l-20.6-11.89-20.6,11.89Z" transform="translate(61.87 8.42)"/><path class="cls-21" d="M315.72,185.47l0,0-20.73-12v-24l0,0,20.73-12,0,0,20.73,12v24l0,0Zm-20.59-12.1,20.59,11.89,20.6-11.89V149.58l-20.6-11.89-20.59,11.89Z" transform="translate(61.87 8.42)"/><polygon class="cls-22" points="403.36 184.67 398.37 181.78 398.37 158 403.36 155.12 403.36 154.91 398.24 157.87 398.19 157.9 398.19 181.89 403.36 184.87 403.36 184.67"/><path class="cls-23" d="M5.4,221.3l-.05,0-20.73-12v-24l0,0,20.74-12,0,0,20.74,12v24l-.05,0Zm-20.6-12.1L5.4,221.09,26,209.2V185.42L5.4,173.52l-20.6,11.9Z" transform="translate(61.87 8.42)"/><path class="cls-24" d="M295,221.3l-.05,0-20.73-12v-24l0,0,20.74-12,0,0,20.73,12v24l0,0Zm-20.6-12.1L295,221.09l20.59-11.89V185.42L295,173.52l-20.6,11.9Z" transform="translate(61.87 8.42)"/><polygon class="cls-25" points="403.36 226.58 398.28 229.51 377.69 217.62 377.69 193.83 398.28 181.94 403.36 184.87 403.36 184.67 398.33 181.76 398.28 181.73 377.55 193.7 377.51 193.73 377.51 217.72 398.24 229.69 398.28 229.72 403.36 226.79 403.36 226.58"/><path class="cls-26" d="M-15.29,257.14l-.05,0-20.73-12v-24l0,0,20.73-12,0,0,20.74,12v24l0,0ZM-35.89,245l20.6,11.89L5.31,245V221.25l-20.6-11.89-20.6,11.89Z" transform="translate(61.87 8.42)"/><path class="cls-27" d="M26.09,257.14l-.05,0-20.73-12v-24l0,0,20.74-12,0,0,20.73,12v24l0,0ZM5.49,245l20.6,11.89L46.68,245V221.25L26.09,209.36,5.49,221.25Z" transform="translate(61.87 8.42)"/><path class="cls-28" d="M67.46,257.14l0,0-20.74-12v-24l0,0,20.73-12,.05,0,20.73,12v24l0,0ZM46.86,245l20.6,11.89L88.06,245V221.25l-20.6-11.89-20.6,11.89Z" transform="translate(61.87 8.42)"/><path class="cls-29" d="M108.84,257.14l0,0-20.74-12v-24l0,0,20.73-12,0,0,20.74,12v24l-.05,0ZM88.24,245l20.6,11.89L129.44,245V221.25l-20.6-11.89-20.6,11.89Z" transform="translate(61.87 8.42)"/><polygon class="cls-30" points="403.36 256.33 398.37 253.45 398.37 229.67 403.36 226.79 403.36 226.58 398.24 229.54 398.19 229.56 398.19 253.56 403.36 256.54 403.36 256.33"/><path class="cls-31" d="M5.4,293l-.05,0-20.73-12V257l0,0L5.4,245l0,0,20.74,12v24l-.05,0Zm-20.6-12.1L5.4,292.76,26,280.87V257.08L5.4,245.19l-20.6,11.89Z" transform="translate(61.87 8.42)"/><path class="cls-32" d="M46.77,293l0,0L26,281V257l0,0,20.73-12,0,0,20.73,12v24l0,0Zm-20.59-12.1,20.59,11.89,20.6-11.89V257.08l-20.6-11.89L26.18,257.08Z" transform="translate(61.87 8.42)"/><path class="cls-33" d="M88.15,293l0,0L67.37,281V257l0,0,20.73-12,0,0,20.73,12v24l-.05,0Zm-20.6-12.1,20.6,11.89,20.6-11.89V257.08l-20.6-11.89-20.6,11.89Z" transform="translate(61.87 8.42)"/><polygon class="cls-34" points="25.98 314.77 25.98 301.33 46.58 289.44 67.18 301.33 67.18 314.77 67.36 314.77 67.36 301.23 46.63 289.26 46.58 289.23 25.85 301.2 25.8 301.23 25.8 314.77 25.98 314.77"/><polygon class="cls-35" points="67.36 314.77 67.36 301.33 87.96 289.44 108.56 301.33 108.56 314.77 108.73 314.77 108.73 301.23 88 289.26 87.96 289.23 67.22 301.2 67.18 301.23 67.18 314.77 67.36 314.77"/><polygon class="cls-36" points="108.73 314.77 108.73 301.33 129.33 289.44 149.93 301.33 149.93 314.77 150.11 314.77 150.11 301.23 129.38 289.26 129.33 289.23 108.6 301.2 108.56 301.23 108.56 314.77 108.73 314.77"/><polygon class="cls-37" points="150.11 314.77 150.11 301.33 170.71 289.44 191.31 301.33 191.31 314.77 191.49 314.77 191.49 301.23 170.76 289.26 170.71 289.23 149.98 301.2 149.93 301.23 149.93 314.77 150.11 314.77"/><polygon class="cls-38" points="315.62 314.77 315.62 301.33 336.22 289.44 356.82 301.33 356.82 314.77 357 314.77 357 301.23 336.26 289.26 336.22 289.23 315.49 301.2 315.44 301.23 315.44 314.77 315.62 314.77"/><polygon class="cls-39" points="357 314.77 357 301.33 377.6 289.44 398.19 301.33 398.19 314.77 398.37 314.77 398.37 301.23 377.64 289.26 377.6 289.23 356.86 301.2 356.82 301.23 356.82 314.77 357 314.77"/><polygon class="cls-40" points="309.2 0 309.2 20.35 282.7 35.65 256.21 20.35 256.21 0 255.27 0 255.27 20.89 282.7 36.73 310.13 20.89 310.13 0 309.2 0"/><polygon class="cls-41" points="363.12 0 363.12 20.35 336.63 35.65 310.13 20.35 310.13 0 309.2 0 309.2 20.89 336.63 36.73 364.06 20.89 364.06 0 363.12 0"/><polygon class="cls-42" points="364.06 20.35 364.06 0 363.12 0 363.12 20.89 390.55 36.73 403.36 29.34 403.36 28.25 390.55 35.65 364.06 20.35"/><path class="cls-43" d="M247.79,75,220.36,59.18V27.5l27.43-15.83L275.23,27.5V59.18ZM221.3,58.64l26.49,15.29,26.5-15.29V28l-26.5-15.29L221.3,28Z" transform="translate(61.87 8.42)"/><path class="cls-44" d="M301.72,75,274.29,59.18V27.5l27.43-15.83L329.15,27.5V59.18ZM275.23,58.64l26.49,15.29,26.49-15.29V28L301.72,12.75,275.23,28Z" transform="translate(61.87 8.42)"/><polygon class="cls-45" points="403.36 74.18 391.02 67.06 391.02 36.46 403.36 29.34 403.36 28.25 390.08 35.92 390.08 67.59 403.36 75.26 403.36 74.18"/><path class="cls-46" d="M274.76,121.72l-27.43-15.84V74.2l27.43-15.83L302.19,74.2v31.68Zm-26.5-16.38,26.5,15.3,26.49-15.3V74.75l-26.49-15.3-26.5,15.3Z" transform="translate(61.87 8.42)"/><polygon class="cls-47" points="403.36 121.66 390.55 129.05 364.06 113.75 364.06 83.16 390.55 67.86 403.36 75.26 403.36 74.18 390.55 66.78 363.12 82.62 363.12 114.3 390.55 130.13 403.36 122.74 403.36 121.66"/><polygon class="cls-48" points="0 121.5 0 122.58 12.61 129.86 12.61 160.46 0 167.74 0 168.82 13.54 161 13.54 129.32 0 121.5"/><path class="cls-49" d="M-21.83,168.42l-27.43-15.84V120.91l27.43-15.84L5.6,120.91v31.67ZM-48.33,152l26.5,15.3L4.66,152V121.45l-26.49-15.3-26.5,15.3Z" transform="translate(61.87 8.42)"/><path class="cls-50" d="M32.09,168.42,4.66,152.58V120.91l27.43-15.84,27.43,15.84v31.67ZM5.6,152l26.49,15.3L58.59,152V121.45l-26.5-15.3L5.6,121.45Z" transform="translate(61.87 8.42)"/><polygon class="cls-51" points="403.36 167.58 391.02 160.46 391.02 129.86 403.36 122.74 403.36 121.66 390.08 129.32 390.08 161 403.36 168.66 403.36 167.58"/><polygon class="cls-52" points="13.07 160.19 0 167.74 0 168.82 13.07 161.27 39.57 176.56 39.57 207.16 13.07 222.45 0 214.91 0 215.99 13.07 223.53 40.51 207.7 40.51 176.02 13.07 160.19"/><path class="cls-53" d="M5.13,215.12-22.3,199.28V167.61L5.13,151.77l27.43,15.84v31.67Zm-26.5-16.38L5.13,214l26.49-15.3V168.15L5.13,152.85l-26.5,15.3Z" transform="translate(61.87 8.42)"/><path class="cls-54" d="M59.05,215.12,31.62,199.28V167.61l27.43-15.84,27.44,15.84v31.67ZM32.56,198.74,59.05,214l26.5-15.3V168.15l-26.5-15.3-26.49,15.3Z" transform="translate(61.87 8.42)"/><polygon class="cls-55" points="0 214.91 0 215.99 12.61 223.26 12.61 253.86 0 261.14 0 262.22 13.54 254.4 13.54 222.72 0 214.91"/><path class="cls-56" d="M-21.83,261.82-49.26,246V214.31l27.43-15.84L5.6,214.31V246Zm-26.5-16.38,26.5,15.3,26.49-15.3V214.85l-26.49-15.3-26.5,15.3Z" transform="translate(61.87 8.42)"/><path class="cls-57" d="M32.09,261.82,4.66,246V214.31l27.43-15.84,27.43,15.84V246ZM5.6,245.44l26.49,15.3,26.5-15.3V214.85l-26.5-15.3L5.6,214.85Z" transform="translate(61.87 8.42)"/><path class="cls-58" d="M301.72,261.82,274.29,246V214.31l27.43-15.84,27.43,15.84V246Zm-26.49-16.38,26.49,15.3,26.49-15.3V214.85l-26.49-15.3-26.49,15.3Z" transform="translate(61.87 8.42)"/><polygon class="cls-59" points="0 309.39 9.33 314.77 11.2 314.77 0 308.31 0 309.39"/><polygon class="cls-60" points="13.07 253.59 0 261.14 0 262.22 13.07 254.67 39.57 269.96 39.57 300.56 14.95 314.77 16.82 314.77 40.51 301.1 40.51 269.43 13.07 253.59"/><polygon class="cls-61" points="65.13 314.77 40.51 300.56 40.51 269.96 67 254.67 93.5 269.96 93.5 300.56 68.87 314.77 70.75 314.77 94.43 301.1 94.43 269.43 67 253.59 39.57 269.43 39.57 301.1 63.26 314.77 65.13 314.77"/><polygon class="cls-62" points="119.05 314.77 94.43 300.56 94.43 269.96 120.93 254.67 147.42 269.96 147.42 300.56 122.8 314.77 124.67 314.77 148.36 301.1 148.36 269.43 120.93 253.59 93.5 269.43 93.5 301.1 117.18 314.77 119.05 314.77"/><polygon class="cls-63" points="334.76 314.77 310.13 300.56 310.13 269.96 336.63 254.67 363.12 269.96 363.12 300.56 338.5 314.77 340.37 314.77 364.06 301.1 364.06 269.43 336.63 253.59 309.2 269.43 309.2 301.1 332.88 314.77 334.76 314.77"/><polygon class="cls-64" points="390.55 254.67 403.36 262.06 403.36 260.98 390.55 253.59 363.12 269.43 363.12 301.1 386.81 314.77 388.68 314.77 364.06 300.56 364.06 269.96 390.55 254.67"/><polygon class="cls-65" points="403.36 308.46 392.43 314.77 394.3 314.77 403.36 309.54 403.36 308.46"/><polygon class="cls-66" points="0 308.31 0 309.39 9.33 314.77 11.2 314.77 0 308.31"/><polygon class="cls-67" points="16.82 314.77 40.04 301.37 63.26 314.77 65.13 314.77 40.04 300.29 14.95 314.77 16.82 314.77"/><polygon class="cls-68" points="70.75 314.77 93.96 301.37 117.18 314.77 119.05 314.77 93.96 300.29 68.87 314.77 70.75 314.77"/><polygon class="cls-69" points="124.67 314.77 147.89 301.37 171.11 314.77 172.98 314.77 147.89 300.29 122.8 314.77 124.67 314.77"/><polygon class="cls-70" points="178.6 314.77 201.81 301.37 225.03 314.77 226.91 314.77 201.81 300.29 176.72 314.77 178.6 314.77"/><polygon class="cls-71" points="232.52 314.77 255.74 301.37 278.96 314.77 280.83 314.77 255.74 300.29 230.65 314.77 232.52 314.77"/><polygon class="cls-72" points="286.45 314.77 309.67 301.37 332.88 314.77 334.76 314.77 309.67 300.29 284.57 314.77 286.45 314.77"/><polygon class="cls-73" points="340.37 314.77 363.59 301.37 386.81 314.77 388.68 314.77 363.59 300.29 338.5 314.77 340.37 314.77"/><polygon class="cls-74" points="403.36 308.46 392.43 314.77 394.3 314.77 403.36 309.54 403.36 308.46"/><path class="cls-75" d="M5.4,79.35a1.49,1.49,0,1,0-1.49-1.49A1.49,1.49,0,0,0,5.4,79.35Z" transform="translate(61.87 8.42)"/><path class="cls-76" d="M129.53,30.34a.25.25,0,0,0,.25-.25.25.25,0,1,0-.5,0A.25.25,0,0,0,129.53,30.34Z" transform="translate(61.87 8.42)"/><path class="cls-77" d="M150.22,39.18A2.85,2.85,0,1,0,153.07,42,2.86,2.86,0,0,0,150.22,39.18Z" transform="translate(61.87 8.42)"/><path class="cls-78" d="M150.22,67.71a1.79,1.79,0,1,0-1.79-1.79A1.79,1.79,0,0,0,150.22,67.71Z" transform="translate(61.87 8.42)"/><path class="cls-79" d="M170.91,79.47a1.61,1.61,0,1,0-1.61-1.61A1.61,1.61,0,0,0,170.91,79.47Z" transform="translate(61.87 8.42)"/><circle class="cls-80" cx="232.78" cy="38.5" r="0.83"/><path class="cls-81" d="M191.59,43.67A1.64,1.64,0,1,0,190,42,1.64,1.64,0,0,0,191.59,43.67Z" transform="translate(61.87 8.42)"/><path class="cls-82" d="M191.59,63.05a2.87,2.87,0,1,0,2.88,2.87A2.87,2.87,0,0,0,191.59,63.05Z" transform="translate(61.87 8.42)"/><path class="cls-83" d="M212.28,31.3a1.21,1.21,0,1,0-1.21-1.21A1.21,1.21,0,0,0,212.28,31.3Z" transform="translate(61.87 8.42)"/><path class="cls-84" d="M233,44.26A2.23,2.23,0,1,0,230.74,42,2.23,2.23,0,0,0,233,44.26Z" transform="translate(61.87 8.42)"/><circle class="cls-85" cx="294.84" cy="74.34" r="2.66"/><path class="cls-86" d="M253.66,31.48a1.4,1.4,0,1,0-1.39-1.39A1.39,1.39,0,0,0,253.66,31.48Z" transform="translate(61.87 8.42)"/><path class="cls-87" d="M274.35,43.63a1.6,1.6,0,1,0-1.6-1.6A1.6,1.6,0,0,0,274.35,43.63Z" transform="translate(61.87 8.42)"/><circle class="cls-88" cx="336.22" cy="74.34" r="1.14"/><path class="cls-89" d="M295,31.16A1.08,1.08,0,1,0,294,30.09,1.07,1.07,0,0,0,295,31.16Z" transform="translate(61.87 8.42)"/><path class="cls-90" d="M315.73,43.73A1.7,1.7,0,1,0,314,42,1.7,1.7,0,0,0,315.73,43.73Z" transform="translate(61.87 8.42)"/><circle class="cls-91" cx="377.6" cy="74.34" r="1.93"/><path class="cls-92" d="M336.41,31.7a1.62,1.62,0,1,0-1.61-1.61A1.61,1.61,0,0,0,336.41,31.7Z" transform="translate(61.87 8.42)"/><path class="cls-93" d="M-15.29,111.79a1.91,1.91,0,0,0-1.9,1.91,1.9,1.9,0,0,0,1.9,1.9,1.9,1.9,0,0,0,1.9-1.9A1.91,1.91,0,0,0-15.29,111.79Z" transform="translate(61.87 8.42)"/><circle class="cls-94" cx="25.89" cy="110.17" r="1.2"/><path class="cls-95" d="M-36,78.77a.91.91,0,0,0,.91-.91A.9.9,0,0,0-36,77a.9.9,0,0,0-.91.9A.91.91,0,0,0-36,78.77Z" transform="translate(61.87 8.42)"/><circle class="cls-96" cx="46.58" cy="74.34" r="2.78"/><path class="cls-97" d="M5.4,104.09a2.34,2.34,0,1,0-2.34-2.34A2.34,2.34,0,0,0,5.4,104.09Z" transform="translate(61.87 8.42)"/><path class="cls-98" d="M170.91,103.91a2.16,2.16,0,1,0-2.16-2.16A2.16,2.16,0,0,0,170.91,103.91Z" transform="translate(61.87 8.42)"/><path class="cls-99" d="M212.28,76.76a1.11,1.11,0,0,0,0,2.21,1.11,1.11,0,1,0,0-2.21Z" transform="translate(61.87 8.42)"/><path class="cls-100" d="M212.28,103.8a2,2,0,1,0-2-2A2.05,2.05,0,0,0,212.28,103.8Z" transform="translate(61.87 8.42)"/><circle class="cls-101" cx="294.84" cy="122.11" r="1.29"/><path class="cls-102" d="M253.66,74.84a3,3,0,1,0,3,3A3,3,0,0,0,253.66,74.84Z" transform="translate(61.87 8.42)"/><path class="cls-103" d="M295,80.11a2.25,2.25,0,1,0-2.25-2.25A2.24,2.24,0,0,0,295,80.11Z" transform="translate(61.87 8.42)"/><path class="cls-104" d="M315.72,115.93a2.24,2.24,0,1,0-2.23-2.23A2.23,2.23,0,0,0,315.72,115.93Z" transform="translate(61.87 8.42)"/><path class="cls-105" d="M295,104.39a2.64,2.64,0,1,0-2.64-2.64A2.64,2.64,0,0,0,295,104.39Z" transform="translate(61.87 8.42)"/><path class="cls-106" d="M336.41,80.26a2.4,2.4,0,1,0-2.39-2.4A2.39,2.39,0,0,0,336.41,80.26Z" transform="translate(61.87 8.42)"/><path class="cls-107" d="M193.31,113.7a1.72,1.72,0,1,0-1.72,1.72A1.72,1.72,0,0,0,193.31,113.7Z" transform="translate(61.87 8.42)"/><circle class="cls-108" cx="315.53" cy="110.17" r="1.39"/><path class="cls-109" d="M274.35,115.18a1.49,1.49,0,0,0,0-3,1.49,1.49,0,1,0,0,3Z" transform="translate(61.87 8.42)"/><circle class="cls-110" cx="398.28" cy="157.95" r="1.47"/><path class="cls-111" d="M315.73,135.67a1.92,1.92,0,1,0,1.91,1.92A1.92,1.92,0,0,0,315.73,135.67Z" transform="translate(61.87 8.42)"/><circle class="cls-112" cx="398.28" cy="110.17" r="1.83"/><path class="cls-113" d="M-15.29,183.19a2.18,2.18,0,0,0-2.18,2.17,2.18,2.18,0,0,0,2.18,2.18,2.18,2.18,0,0,0,2.18-2.18A2.18,2.18,0,0,0-15.29,183.19Z" transform="translate(61.87 8.42)"/><circle class="cls-114" cx="25.89" cy="181.84" r="0.19"/><circle class="cls-115" cx="25.89" cy="157.95" r="1.74"/><path class="cls-116" d="M-15.29,136.09a1.5,1.5,0,0,0-1.5,1.5,1.5,1.5,0,0,0,1.5,1.49,1.5,1.5,0,0,0,1.5-1.49A1.5,1.5,0,0,0-15.29,136.09Z" transform="translate(61.87 8.42)"/><path class="cls-117" d="M24.73,185.36A1.36,1.36,0,1,0,26.09,184,1.36,1.36,0,0,0,24.73,185.36Z" transform="translate(61.87 8.42)"/><path class="cls-118" d="M233,135.38a2.21,2.21,0,1,0,2.21,2.21A2.21,2.21,0,0,0,233,135.38Z" transform="translate(61.87 8.42)"/><path class="cls-119" d="M251.36,149.53a2.3,2.3,0,1,0,2.3-2.3A2.3,2.3,0,0,0,251.36,149.53Z" transform="translate(61.87 8.42)"/><circle class="cls-120" cx="336.22" cy="193.78" r="1.39"/><circle class="cls-121" cx="315.53" cy="181.84" r="1.81"/><circle class="cls-122" cx="336.22" cy="146" r="1.93"/><circle class="cls-123" cx="356.91" cy="181.84" r="2.74"/><path class="cls-124" d="M315.72,186.91a1.55,1.55,0,1,0-1.54-1.55A1.54,1.54,0,0,0,315.72,186.91Z" transform="translate(61.87 8.42)"/><path class="cls-125" d="M295,152.24a2.71,2.71,0,1,0-2.71-2.71A2.71,2.71,0,0,0,295,152.24Z" transform="translate(61.87 8.42)"/><circle class="cls-126" cx="398.28" cy="181.84" r="1.23"/><path class="cls-127" d="M5.4,176.06a2.64,2.64,0,1,0-2.64-2.64A2.64,2.64,0,0,0,5.4,176.06Z" transform="translate(61.87 8.42)"/><path class="cls-128" d="M26.09,211.5a2.25,2.25,0,1,0-2.25-2.25A2.25,2.25,0,0,0,26.09,211.5Z" transform="translate(61.87 8.42)"/><path class="cls-129" d="M68.53,209.25a1.07,1.07,0,1,0-1.07,1.07A1.07,1.07,0,0,0,68.53,209.25Z" transform="translate(61.87 8.42)"/><path class="cls-130" d="M88.15,223.26a2.06,2.06,0,1,0-2.06-2.06A2.06,2.06,0,0,0,88.15,223.26Z" transform="translate(61.87 8.42)"/><path class="cls-131" d="M110.83,209.25a2,2,0,1,0-2,2A2,2,0,0,0,110.83,209.25Z" transform="translate(61.87 8.42)"/><path class="cls-132" d="M129.53,223.53a2.33,2.33,0,1,0-2.33-2.33A2.34,2.34,0,0,0,129.53,223.53Z" transform="translate(61.87 8.42)"/><circle class="cls-133" cx="46.58" cy="265.45" r="1.34"/><circle class="cls-134" cx="25.89" cy="253.5" r="1.07"/><path class="cls-135" d="M-36.49,221.2a.51.51,0,0,0,.51.51.51.51,0,0,0,.51-.51.51.51,0,0,0-.51-.51A.51.51,0,0,0-36.49,221.2Z" transform="translate(61.87 8.42)"/><circle class="cls-136" cx="46.58" cy="217.67" r="2.1"/><path class="cls-137" d="M3.66,245.09a1.74,1.74,0,1,0,1.74-1.74A1.74,1.74,0,0,0,3.66,245.09Z" transform="translate(61.87 8.42)"/><path class="cls-138" d="M6.59,221.2a1.19,1.19,0,1,0-1.19,1.19A1.19,1.19,0,0,0,6.59,221.2Z" transform="translate(61.87 8.42)"/><path class="cls-139" d="M46.77,220.22a1,1,0,1,0,1,1A1,1,0,0,0,46.77,220.22Z" transform="translate(61.87 8.42)"/><path class="cls-140" d="M65.82,257a1.64,1.64,0,1,0,1.64-1.64A1.64,1.64,0,0,0,65.82,257Z" transform="translate(61.87 8.42)"/><path class="cls-141" d="M46.77,242.73a2.36,2.36,0,1,0,2.36,2.36A2.36,2.36,0,0,0,46.77,242.73Z" transform="translate(61.87 8.42)"/><path class="cls-142" d="M129.53,247.63a2.55,2.55,0,1,0-2.55-2.54A2.55,2.55,0,0,0,129.53,247.63Z" transform="translate(61.87 8.42)"/><path class="cls-143" d="M274.35,255.76a1.28,1.28,0,1,0,1.27,1.27A1.27,1.27,0,0,0,274.35,255.76Z" transform="translate(61.87 8.42)"/><path class="cls-144" d="M274.35,210.74a1.49,1.49,0,1,0-1.49-1.49A1.49,1.49,0,0,0,274.35,210.74Z" transform="translate(61.87 8.42)"/><path class="cls-145" d="M295,218.29A2.91,2.91,0,1,0,298,221.2,2.91,2.91,0,0,0,295,218.29Z" transform="translate(61.87 8.42)"/><path class="cls-146" d="M315.73,210.84a1.59,1.59,0,1,0-1.59-1.59A1.59,1.59,0,0,0,315.73,210.84Z" transform="translate(61.87 8.42)"/><path class="cls-147" d="M336.41,223.57A2.37,2.37,0,1,0,334,221.2,2.37,2.37,0,0,0,336.41,223.57Z" transform="translate(61.87 8.42)"/><path class="cls-148" d="M336.41,241.93a3.16,3.16,0,1,0,3.16,3.16A3.16,3.16,0,0,0,336.41,241.93Z" transform="translate(61.87 8.42)"/><path class="cls-149" d="M24.52,257a1.57,1.57,0,1,0,1.57-1.57A1.57,1.57,0,0,0,24.52,257Z" transform="translate(61.87 8.42)"/><path class="cls-150" d="M26.09,283.49a2.57,2.57,0,1,0-2.57-2.57A2.57,2.57,0,0,0,26.09,283.49Z" transform="translate(61.87 8.42)"/><circle class="cls-151" cx="150.02" cy="253.5" r="2.68"/><circle class="cls-152" cx="170.71" cy="265.45" r="0.99"/><path class="cls-153" d="M129.53,294.84a2,2,0,1,0-2-2A2,2,0,0,0,129.53,294.84Z" transform="translate(61.87 8.42)"/><circle class="cls-154" cx="170.71" cy="289.34" r="3.02"/><path class="cls-155" d="M276.07,280.92a1.72,1.72,0,1,0-1.72,1.72A1.72,1.72,0,0,0,276.07,280.92Z" transform="translate(61.87 8.42)"/><path class="cls-156" d="M315.72,259.27a2.24,2.24,0,1,0-2.23-2.24A2.24,2.24,0,0,0,315.72,259.27Z" transform="translate(61.87 8.42)"/><path class="cls-157" d="M315.73,278.69a2.23,2.23,0,1,0,2.23,2.23A2.23,2.23,0,0,0,315.73,278.69Z" transform="translate(61.87 8.42)"/><path class="cls-158" d="M-35.58,292.87a.4.4,0,0,0-.4-.4.4.4,0,0,0-.4.4.4.4,0,0,0,.4.39A.4.4,0,0,0-35.58,292.87Z" transform="translate(61.87 8.42)"/><path class="cls-159" d="M-15.29,279.63a1.29,1.29,0,0,0-1.29,1.29,1.29,1.29,0,0,0,1.29,1.29A1.29,1.29,0,0,0-14,280.92,1.29,1.29,0,0,0-15.29,279.63Z" transform="translate(61.87 8.42)"/><path class="cls-160" d="M5.4,289.57a3.3,3.3,0,1,0,3.29,3.3A3.29,3.29,0,0,0,5.4,289.57Z" transform="translate(61.87 8.42)"/><path class="cls-161" d="M46.77,290.88a2,2,0,1,0,2,2A2,2,0,0,0,46.77,290.88Z" transform="translate(61.87 8.42)"/><path class="cls-162" d="M67.46,283.18a2.26,2.26,0,1,0-2.26-2.26A2.27,2.27,0,0,0,67.46,283.18Z" transform="translate(61.87 8.42)"/><path class="cls-163" d="M90.74,292.87a2.59,2.59,0,1,0-2.59,2.58A2.59,2.59,0,0,0,90.74,292.87Z" transform="translate(61.87 8.42)"/><path class="cls-164" d="M253.66,294.64a1.78,1.78,0,1,0-1.78-1.77A1.78,1.78,0,0,0,253.66,294.64Z" transform="translate(61.87 8.42)"/><path class="cls-165" d="M295,294.83a2,2,0,1,0-2-2A2,2,0,0,0,295,294.83Z" transform="translate(61.87 8.42)"/></g><g class="cls-166"><polygon class="cls-167" points="3.43 0 3.43 25.27 0 27.26 0 27.51 3.6 25.43 3.65 25.4 3.65 0 3.43 0"/><polygon class="cls-168" points="255.94 0 255.94 25.27 230.8 39.79 205.66 25.27 205.66 0 205.44 0 205.44 25.4 230.75 40.01 230.8 40.04 256.11 25.43 256.16 25.4 256.16 0 255.94 0"/><polygon class="cls-169" points="306.45 0 306.45 25.27 281.31 39.79 256.16 25.27 256.16 0 255.94 0 255.94 25.4 281.25 40.01 281.31 40.04 306.61 25.43 306.67 25.4 306.67 0 306.45 0"/><polygon class="cls-170" points="356.95 0 356.95 25.27 331.81 39.79 306.67 25.27 306.67 0 306.45 0 306.45 25.4 331.75 40.01 331.81 40.04 357.11 25.43 357.17 25.4 357.17 0 356.95 0"/><polygon class="cls-171" points="357.17 25.27 357.17 0 356.95 0 356.95 25.4 382.25 40.01 382.31 40.04 398.3 30.82 398.3 30.56 382.31 39.79 357.17 25.27"/><path class="cls-172" d="M244.69,75.36l-.06,0-25.3-14.61V31.44l0,0L244.69,16.8l.05,0,25.31,14.61V60.72l-.06,0ZM219.54,60.6l25.15,14.51L269.83,60.6v-29L244.69,17.05,219.54,31.56Z" transform="translate(61.87 8.42)"/><path class="cls-173" d="M295.19,75.36l-.06,0-25.3-14.61V31.44l.05,0L295.19,16.8l.05,0,25.31,14.61V60.72l-.06,0ZM270.05,60.6l25.14,14.51L320.33,60.6v-29L295.19,17.05,270.05,31.56Z" transform="translate(61.87 8.42)"/><polygon class="cls-174" points="398.3 78.18 382.42 69.01 382.42 39.98 398.3 30.82 398.3 30.56 382.25 39.82 382.2 39.85 382.2 69.14 398.3 78.43 398.3 78.18"/><path class="cls-175" d="M269.94,119.1l-.06,0-25.3-14.61V75.17l0,0,25.31-14.61.05,0L295.3,75.17v29.29l-.06,0ZM244.8,104.33l25.14,14.52,25.14-14.52v-29L269.94,60.79,244.8,75.3Z" transform="translate(61.87 8.42)"/><polygon class="cls-176" points="398.3 118.03 382.31 127.26 357.17 112.75 357.17 83.72 382.31 69.2 398.3 78.43 398.3 78.18 382.37 68.98 382.31 68.95 357 83.56 356.95 83.59 356.95 112.88 382.25 127.48 382.31 127.52 398.3 118.29 398.3 118.03"/><polygon class="cls-177" points="3.6 112.72 3.54 112.69 0 114.73 0 114.98 3.54 112.94 28.68 127.45 28.68 156.48 3.54 171 0 168.95 0 169.21 3.49 171.22 3.54 171.25 28.85 156.64 28.9 156.61 28.9 127.33 3.6 112.72"/><path class="cls-178" d="M295.19,162.84l-.06,0-25.3-14.61V118.91l.05,0,25.31-14.61.05,0,25.31,14.61v29.28l-.06,0Zm-25.14-14.77,25.14,14.51,25.14-14.51V119l-25.14-14.52L270.05,119Z" transform="translate(61.87 8.42)"/><polygon class="cls-179" points="398.3 165.65 382.42 156.48 382.42 127.45 398.3 118.29 398.3 118.03 382.25 127.3 382.2 127.33 382.2 156.61 398.3 165.9 398.3 165.65"/><polygon class="cls-180" points="0 168.95 0 169.21 3.43 171.19 3.43 200.22 0 202.2 0 202.46 3.6 200.38 3.65 200.35 3.65 171.06 0 168.95"/><path class="cls-181" d="M-33.08,206.57l-.05,0-25.31-14.61V162.65l.06,0L-33.08,148l.06,0,25.3,14.61v29.28l0,0ZM-58.22,191.8l25.14,14.52L-7.94,191.8v-29l-25.14-14.51-25.14,14.51Z" transform="translate(61.87 8.42)"/><path class="cls-182" d="M17.43,206.57l-.06,0L-7.94,191.93V162.65l.06,0L17.43,148l.05,0,25.31,14.61v29.28l-.06,0ZM-7.72,191.8l25.15,14.52L42.57,191.8v-29L17.43,148.26-7.72,162.77Z" transform="translate(61.87 8.42)"/><path class="cls-183" d="M67.93,206.57l-.06,0-25.3-14.61V162.65l0,0L67.93,148l0,0,25.31,14.61v29.28l-.06,0ZM42.79,191.8l25.14,14.52L93.07,191.8v-29L67.93,148.26,42.79,162.77Z" transform="translate(61.87 8.42)"/><polygon class="cls-184" points="3.6 200.19 3.54 200.16 0 202.2 0 202.46 3.54 200.41 28.68 214.93 28.68 243.96 3.54 258.47 0 256.43 0 256.68 3.49 258.69 3.54 258.73 28.85 244.12 28.9 244.08 28.9 214.8 3.6 200.19"/><path class="cls-185" d="M-7.83,250.31l0,0-25.31-14.61V206.38l.06,0,25.3-14.61.06,0,25.3,14.61v29.29l-.05,0ZM-33,235.54l25.14,14.52,25.15-14.52v-29L-7.83,192-33,206.51Z" transform="translate(61.87 8.42)"/><path class="cls-186" d="M42.68,250.31l-.06,0-25.3-14.61V206.38l.05,0,25.31-14.61,0,0L68,206.38v29.29l-.06,0ZM17.53,235.54l25.15,14.52,25.14-14.52v-29L42.68,192,17.53,206.51Z" transform="translate(61.87 8.42)"/><polygon class="cls-187" points="0 256.43 0 256.68 3.43 258.66 3.43 287.69 0 289.68 0 289.93 3.6 287.85 3.65 287.82 3.65 258.54 0 256.43"/><path class="cls-188" d="M-33.08,294.05l-.05,0L-58.44,279.4V250.12l.06,0,25.3-14.61.06,0,25.3,14.61V279.4l0,0Zm-25.14-14.77,25.14,14.51,25.14-14.51v-29l-25.14-14.52-25.14,14.52Z" transform="translate(61.87 8.42)"/><path class="cls-189" d="M17.43,294.05l-.06,0L-7.94,279.4V250.12l.06,0,25.31-14.61.05,0,25.31,14.61V279.4l-.06,0ZM-7.72,279.28l25.15,14.51,25.14-14.51v-29L17.43,235.73-7.72,250.25Z" transform="translate(61.87 8.42)"/><path class="cls-190" d="M67.93,294.05l-.06,0L42.57,279.4V250.12l0,0,25.31-14.61,0,0,25.31,14.61V279.4l-.06,0ZM42.79,279.28l25.14,14.51,25.14-14.51v-29L67.93,235.73,42.79,250.25Z" transform="translate(61.87 8.42)"/><path class="cls-191" d="M269.94,294.05l-.06,0-25.3-14.61V250.12l0,0,25.31-14.61.05,0,25.31,14.61V279.4l-.06,0ZM244.8,279.28l25.14,14.51,25.14-14.51v-29l-25.14-14.52L244.8,250.25Z" transform="translate(61.87 8.42)"/><polygon class="cls-192" points="398.3 292.98 382.31 302.21 357.17 287.69 357.17 258.66 382.31 244.15 398.3 253.38 398.3 253.12 382.37 243.93 382.31 243.89 357 258.5 356.95 258.54 356.95 287.82 382.25 302.43 382.31 302.46 398.3 293.23 398.3 292.98"/><polygon class="cls-193" points="3.6 287.66 3.54 287.63 0 289.68 0 289.93 3.54 287.88 28.68 302.4 28.68 310.82 28.9 310.82 28.9 302.27 3.6 287.66"/><polygon class="cls-194" points="28.9 310.82 28.9 302.4 54.05 287.88 79.19 302.4 79.19 310.82 79.41 310.82 79.41 302.27 54.1 287.66 54.05 287.63 28.74 302.24 28.68 302.27 28.68 310.82 28.9 310.82"/><polygon class="cls-195" points="79.41 310.82 79.41 302.4 104.55 287.88 129.69 302.4 129.69 310.82 129.91 310.82 129.91 302.27 104.6 287.66 104.55 287.63 79.24 302.24 79.19 302.27 79.19 310.82 79.41 310.82"/><polygon class="cls-196" points="129.91 310.82 129.91 302.4 155.05 287.88 180.19 302.4 180.19 310.82 180.41 310.82 180.41 302.27 155.1 287.66 155.05 287.63 129.74 302.24 129.69 302.27 129.69 310.82 129.91 310.82"/><polygon class="cls-197" points="331.92 310.82 331.92 302.4 357.06 287.88 382.2 302.4 382.2 310.82 382.42 310.82 382.42 302.27 357.11 287.66 357.06 287.63 331.75 302.24 331.7 302.27 331.7 310.82 331.92 310.82"/><polygon class="cls-198" points="398.3 292.98 382.25 302.24 382.2 302.27 382.2 310.82 382.42 310.82 382.42 302.4 398.3 293.23 398.3 292.98"/><polygon class="cls-199" points="364.64 0 364.64 29.71 332.31 48.38 299.97 29.71 299.97 0 298.83 0 298.83 30.38 332.31 49.7 365.79 30.38 365.79 0 364.64 0"/><polygon class="cls-200" points="365.79 29.71 365.79 0 364.64 0 364.64 30.38 398.13 49.7 398.3 49.61 398.3 48.29 398.13 48.38 365.79 29.71"/><polygon class="cls-201" points="0 46.53 0 47.85 2.64 49.38 2.64 86.72 0 88.24 0 89.56 3.79 87.38 3.79 48.72 0 46.53"/><path class="cls-202" d="M-25.75,98.29-59.23,79V40.3L-25.75,21,7.73,40.3V79Zm-32.33-20L-25.75,97,6.59,78.3V41L-25.75,22.29-58.08,41Z" transform="translate(61.87 8.42)"/><polygon class="cls-203" points="398.3 48.29 397.55 48.72 397.55 87.38 398.3 87.8 398.3 48.29"/><polygon class="cls-204" points="3.21 86.39 0 88.24 0 89.56 3.21 87.7 35.55 106.38 35.55 143.72 3.21 162.39 0 160.53 0 161.85 3.21 163.71 36.7 144.38 36.7 105.72 3.21 86.39"/><path class="cls-205" d="M7.16,155.29-26.32,136V97.3L7.16,78,40.64,97.3V136Zm-32.33-20L7.16,154,39.5,135.3V98L7.16,79.29-25.17,98Z" transform="translate(61.87 8.42)"/><polygon class="cls-206" points="0 160.53 0 161.85 2.64 163.38 2.64 200.72 0 202.24 0 203.56 3.79 201.38 3.79 162.72 0 160.53"/><path class="cls-207" d="M-25.75,212.29-59.23,193V154.3L-25.75,135,7.73,154.3V193Zm-32.33-20L-25.75,211,6.59,192.3V155l-32.34-18.67L-58.08,155Z" transform="translate(61.87 8.42)"/><path class="cls-208" d="M336.42,154.07,303.35,135,269.86,154.3V193l33.49,19.33,33.07-19.1ZM303.35,211,271,192.3V155l32.34-18.67L335.68,155V192.3Z" transform="translate(61.87 8.42)"/><polygon class="cls-209" points="3.21 200.39 0 202.24 0 203.56 3.21 201.71 35.55 220.38 35.55 257.72 3.21 276.39 0 274.53 0 275.85 3.21 277.71 36.7 258.38 36.7 219.72 3.21 200.39"/><path class="cls-210" d="M7.16,269.29-26.32,250V211.3L7.16,192,40.64,211.3V250Zm-32.33-20L7.16,268,39.5,249.3V212L7.16,193.29-25.17,212Z" transform="translate(61.87 8.42)"/><path class="cls-211" d="M270.44,269.29,237,250V211.3L270.44,192l33.48,19.33V250Zm-32.34-20L270.44,268l32.33-18.67V212l-32.33-18.67L238.1,212Z" transform="translate(61.87 8.42)"/><polygon class="cls-212" points="398.3 276.29 398.13 276.39 365.79 257.72 365.79 220.38 398.13 201.71 398.3 201.8 398.3 200.49 398.13 200.39 364.64 219.72 364.64 258.38 398.13 277.71 398.3 277.61 398.3 276.29"/><polygon class="cls-213" points="0 274.53 0 275.85 2.64 277.38 2.64 310.82 3.79 310.82 3.79 276.72 0 274.53"/><polygon class="cls-214" points="3.79 310.82 3.79 277.38 36.12 258.71 68.46 277.38 68.46 310.82 69.61 310.82 69.61 276.72 36.12 257.39 2.64 276.72 2.64 310.82 3.79 310.82"/><polygon class="cls-215" points="69.61 310.82 69.61 277.38 101.94 258.71 134.28 277.38 134.28 310.82 135.42 310.82 135.42 276.72 101.94 257.39 68.46 276.72 68.46 310.82 69.61 310.82"/><polygon class="cls-216" points="135.42 310.82 135.42 277.38 167.76 258.71 200.1 277.38 200.1 310.82 201.24 310.82 201.24 276.72 167.76 257.39 134.28 276.72 134.28 310.82 135.42 310.82"/><polygon class="cls-217" points="201.24 310.82 201.24 277.38 233.58 258.71 265.92 277.38 265.92 310.82 267.06 310.82 267.06 276.72 233.58 257.39 200.1 276.72 200.1 310.82 201.24 310.82"/><polygon class="cls-218" points="267.06 310.82 267.06 277.38 299.4 258.71 331.74 277.38 331.74 310.82 332.88 310.82 332.88 276.72 299.4 257.39 265.92 276.72 265.92 310.82 267.06 310.82"/><polygon class="cls-219" points="398.3 310.82 398.3 276.49 365.22 257.39 331.74 276.72 331.74 310.82 332.88 310.82 332.88 277.38 365.22 258.71 397.55 277.38 397.55 310.82 398.3 310.82"/><polygon class="cls-220" points="398.3 276.29 397.55 276.72 397.55 310.82 398.3 310.82 398.3 276.29"/><path class="cls-221" d="M-58.33,19.78a2.86,2.86,0,0,0,2.86-2.86,2.86,2.86,0,0,0-2.86-2.85,2.86,2.86,0,0,0-2.85,2.85A2.86,2.86,0,0,0-58.33,19.78Z" transform="translate(61.87 8.42)"/><circle class="cls-222" cx="205.55" cy="25.34" r="2.63"/><path class="cls-223" d="M194.18,19.42a2.5,2.5,0,1,0-2.49-2.5A2.5,2.5,0,0,0,194.18,19.42Z" transform="translate(61.87 8.42)"/><circle class="cls-224" cx="281.31" cy="39.92" r="1.58"/><path class="cls-225" d="M320.44,34.23a2.73,2.73,0,1,0-2.73-2.73A2.73,2.73,0,0,0,320.44,34.23Z" transform="translate(61.87 8.42)"/><circle class="cls-226" cx="357.06" cy="25.34" r="3.22"/><path class="cls-227" d="M171,31.5a2.1,2.1,0,1,0-2.1,2.1A2.1,2.1,0,0,0,171,31.5Z" transform="translate(61.87 8.42)"/><circle class="cls-228" cx="306.56" cy="25.34" r="1.69"/><circle class="cls-229" cx="331.81" cy="39.92" r="1.81"/><path class="cls-230" d="M320.44,58.32a2.34,2.34,0,1,0,2.34,2.34A2.34,2.34,0,0,0,320.44,58.32Z" transform="translate(61.87 8.42)"/><path class="cls-231" d="M-34.73,119a1.65,1.65,0,0,0,1.65,1.66A1.66,1.66,0,0,0-31.42,119a1.65,1.65,0,0,0-1.66-1.65A1.65,1.65,0,0,0-34.73,119Z" transform="translate(61.87 8.42)"/><circle class="cls-232" cx="281.31" cy="69.08" r="2.7"/><path class="cls-233" d="M241.88,75.24a2.81,2.81,0,1,0,2.81-2.81A2.8,2.8,0,0,0,241.88,75.24Z" transform="translate(61.87 8.42)"/><circle class="cls-234" cx="331.81" cy="127.39" r="1.69"/><path class="cls-235" d="M244.69,102.19a2.21,2.21,0,1,0,2.2,2.2A2.21,2.21,0,0,0,244.69,102.19Z" transform="translate(61.87 8.42)"/><circle class="cls-236" cx="331.81" cy="69.08" r="2.35"/><circle class="cls-237" cx="357.06" cy="112.81" r="3.34"/><path class="cls-238" d="M320.44,120.86a1.89,1.89,0,1,0-1.89-1.89A1.89,1.89,0,0,0,320.44,120.86Z" transform="translate(61.87 8.42)"/><path class="cls-239" d="M295.19,78.54a3.31,3.31,0,1,0-3.31-3.3A3.31,3.31,0,0,0,295.19,78.54Z" transform="translate(61.87 8.42)"/><path class="cls-240" d="M-58.33,107.61a3.22,3.22,0,0,0,3.22-3.22,3.22,3.22,0,0,0-3.22-3.22,3.22,3.22,0,0,0-3.22,3.22A3.22,3.22,0,0,0-58.33,107.61Z" transform="translate(61.87 8.42)"/><path class="cls-241" d="M-33.08,150.87a2.74,2.74,0,0,0,2.74-2.74,2.74,2.74,0,0,0-2.74-2.73,2.73,2.73,0,0,0-2.73,2.73A2.74,2.74,0,0,0-33.08,150.87Z" transform="translate(61.87 8.42)"/><path class="cls-242" d="M18.72,148.13a1.3,1.3,0,1,0-1.29,1.3A1.3,1.3,0,0,0,18.72,148.13Z" transform="translate(61.87 8.42)"/><circle class="cls-243" cx="104.55" cy="171.13" r="2.51"/><path class="cls-244" d="M70.36,148.13a2.43,2.43,0,1,0-2.43,2.43A2.43,2.43,0,0,0,70.36,148.13Z" transform="translate(61.87 8.42)"/><circle class="cls-245" cx="155.05" cy="171.13" r="2.84"/><path class="cls-246" d="M-60.44,191.87A2.1,2.1,0,0,0-58.33,194a2.11,2.11,0,0,0,2.12-2.11,2.12,2.12,0,0,0-2.12-2.12A2.11,2.11,0,0,0-60.44,191.87Z" transform="translate(61.87 8.42)"/><path class="cls-247" d="M-56.88,162.71a1.45,1.45,0,0,0-1.45-1.45,1.45,1.45,0,0,0-1.45,1.45,1.45,1.45,0,0,0,1.45,1.45A1.45,1.45,0,0,0-56.88,162.71Z" transform="translate(61.87 8.42)"/><circle class="cls-248" cx="54.05" cy="171.13" r="1.19"/><path class="cls-249" d="M15.43,206.45a2,2,0,1,0,2-2A2,2,0,0,0,15.43,206.45Z" transform="translate(61.87 8.42)"/><path class="cls-250" d="M-7.83,189a2.88,2.88,0,0,0-2.88,2.88,2.88,2.88,0,0,0,2.88,2.88,2.88,2.88,0,0,0,2.89-2.88A2.88,2.88,0,0,0-7.83,189Z" transform="translate(61.87 8.42)"/><circle class="cls-251" cx="155.05" cy="200.28" r="3.11"/><path class="cls-252" d="M269.94,204.89a1.56,1.56,0,1,0,0,3.11,1.56,1.56,0,0,0,0-3.11Z" transform="translate(61.87 8.42)"/><circle class="cls-253" cx="331.81" cy="156.55" r="1.82"/><circle class="cls-254" cx="357.06" cy="171.13" r="3.55"/><path class="cls-255" d="M320.44,150.06a1.93,1.93,0,1,0-1.93-1.93A1.92,1.92,0,0,0,320.44,150.06Z" transform="translate(61.87 8.42)"/><circle class="cls-256" cx="28.79" cy="214.86" r="1.91"/><path class="cls-257" d="M-33.08,238.74a3.15,3.15,0,0,0,3.14-3.14,3.14,3.14,0,0,0-3.14-3.13,3.13,3.13,0,0,0-3.13,3.13A3.14,3.14,0,0,0-33.08,238.74Z" transform="translate(61.87 8.42)"/><circle class="cls-258" cx="104.55" cy="200.28" r="3.27"/><path class="cls-259" d="M66.72,206.45a1.21,1.21,0,1,0,1.21-1.21A1.21,1.21,0,0,0,66.72,206.45Z" transform="translate(61.87 8.42)"/><circle class="cls-260" cx="155.05" cy="258.6" r="2.41"/><path class="cls-261" d="M67.93,231.91a3.69,3.69,0,1,0,3.69,3.69A3.69,3.69,0,0,0,67.93,231.91Z" transform="translate(61.87 8.42)"/><path class="cls-262" d="M272,235.6a2.1,2.1,0,1,0-2.09,2.1A2.1,2.1,0,0,0,272,235.6Z" transform="translate(61.87 8.42)"/><path class="cls-263" d="M320.44,209.18a2.73,2.73,0,1,0-2.73-2.73A2.73,2.73,0,0,0,320.44,209.18Z" transform="translate(61.87 8.42)"/><path class="cls-264" d="M320.44,232.88a2.73,2.73,0,1,0,2.73,2.72A2.72,2.72,0,0,0,320.44,232.88Z" transform="translate(61.87 8.42)"/><path class="cls-265" d="M-58.33,246.16a4,4,0,0,0-3.54,2.16V252a4,4,0,0,0,3.54,2.16,4,4,0,0,0,4-4A4,4,0,0,0-58.33,246.16Z" transform="translate(61.87 8.42)"/><path class="cls-266" d="M-33.08,295.65a1.73,1.73,0,0,0,1.74-1.73,1.74,1.74,0,0,0-1.74-1.74,1.74,1.74,0,0,0-1.73,1.74A1.73,1.73,0,0,0-33.08,295.65Z" transform="translate(61.87 8.42)"/><path class="cls-267" d="M-7.83,282.77a3.43,3.43,0,0,0,3.43-3.43,3.43,3.43,0,0,0-3.43-3.43,3.43,3.43,0,0,0-3.42,3.43A3.43,3.43,0,0,0-7.83,282.77Z" transform="translate(61.87 8.42)"/><path class="cls-268" d="M-7.83,247.76a2.42,2.42,0,0,0-2.42,2.42,2.42,2.42,0,0,0,2.42,2.43,2.43,2.43,0,0,0,2.43-2.43A2.42,2.42,0,0,0-7.83,247.76Z" transform="translate(61.87 8.42)"/><path class="cls-269" d="M17.43,238.37a2.77,2.77,0,1,0-2.77-2.77A2.77,2.77,0,0,0,17.43,238.37Z" transform="translate(61.87 8.42)"/><path class="cls-270" d="M45.84,250.18a3.16,3.16,0,1,0-3.16,3.16A3.17,3.17,0,0,0,45.84,250.18Z" transform="translate(61.87 8.42)"/><path class="cls-271" d="M67.93,296.4a2.49,2.49,0,1,0-2.49-2.48A2.48,2.48,0,0,0,67.93,296.4Z" transform="translate(61.87 8.42)"/><circle class="cls-272" cx="155.05" cy="287.76" r="2.62"/><path class="cls-273" d="M244.69,252.35a2.17,2.17,0,1,0-2.17-2.17A2.17,2.17,0,0,0,244.69,252.35Z" transform="translate(61.87 8.42)"/><circle class="cls-274" cx="357.06" cy="258.6" r="2.4"/><path class="cls-275" d="M-58.33,278a1.3,1.3,0,0,0-1.3,1.3,1.3,1.3,0,0,0,1.3,1.3,1.3,1.3,0,0,0,1.3-1.3A1.3,1.3,0,0,0-58.33,278Z" transform="translate(61.87 8.42)"/><path class="cls-276" d="M17.43,290.64a3.28,3.28,0,1,0,3.27,3.28A3.28,3.28,0,0,0,17.43,290.64Z" transform="translate(61.87 8.42)"/><circle class="cls-277" cx="104.55" cy="287.76" r="1.47"/><circle class="cls-278" cx="180.3" cy="302.34" r="1.94"/><path class="cls-279" d="M244.69,276.91a2.43,2.43,0,1,0,2.42,2.43A2.43,2.43,0,0,0,244.69,276.91Z" transform="translate(61.87 8.42)"/><path class="cls-280" d="M268.58,293.92a1.36,1.36,0,1,0,1.36-1.36A1.35,1.35,0,0,0,268.58,293.92Z" transform="translate(61.87 8.42)"/><path class="cls-281" d="M295.19,276.82a2.52,2.52,0,1,0,2.52,2.52A2.52,2.52,0,0,0,295.19,276.82Z" transform="translate(61.87 8.42)"/><path class="cls-282" d="M320.44,290.93a3,3,0,1,0,3,3A3,3,0,0,0,320.44,290.93Z" transform="translate(61.87 8.42)"/></g></g><path class="cls-283" d="M107.49,98v93.75h74.67V152.89h-7.5v31.32H115V105.47h59.66v30.75h7.5V98Z" transform="translate(61.87 8.42)"/><rect class="cls-284" x="192.8" y="129.47" width="59.41" height="15.16"/><polygon class="cls-285" points="252.22 161.3 252.22 208.29 192.8 208.29 192.8 193.13 237.06 193.13 237.06 176.46 192.8 176.46 192.8 161.3 252.22 161.3"/><path class="cls-286" d="M278.94,142.7,155.14,18.89a8.81,8.81,0,0,0-12.44,0L18.89,142.7a8.82,8.82,0,0,0,0,12.44L142.7,278.94a8.81,8.81,0,0,0,12.44,0l123.8-123.8A8.81,8.81,0,0,0,278.94,142.7Zm-36.15,12.44-87.66,87.64a8.79,8.79,0,0,1-12.43,0L55.05,155.14a8.81,8.81,0,0,1,0-12.44L142.7,55.05a8.79,8.79,0,0,1,12.43,0l87.66,87.65A8.81,8.81,0,0,1,242.79,155.14Z" transform="translate(61.87 8.42)"/><path class="cls-287" d="M365.44,185.22V31.45H552.16V63.18H400.83V118.1H552.47v31.73H400.83v35.39ZM552.16,245H365.44V213H552.16Z" transform="translate(61.87 8.42)"/><path class="cls-288" d="M798.07,181.26l28.68,15.86q-21.36,25-49.12,36.61Q750.46,245,712,245q-53.7,0-88.78-26.85Q583,187.36,583,138.24t40.88-79.63q36-27.15,88.17-27.16,75.66,0,116.25,52.48L797.77,94.61Q766.95,62,712,62q-41.81,0-68,21.67Q617.75,105,617.76,138.24q0,34.17,25.93,55.22,26.23,21,70.17,21Q767.26,214.51,798.07,181.26Z" transform="translate(61.87 8.42)"/><path class="cls-289" d="M1069.61,137.93q0,44.85-29,75.36-32.36,34.49-84.52,34.48-51.87,0-84.81-34.78-28.69-31.12-28.68-75.06,0-44.54,28.68-75.05,33.24-35.08,84.81-35.09,51.87,0,84.82,34.78Q1069.61,93.08,1069.61,137.93Zm-34.78,0q0-35.7-22.27-56.75Q991.2,59.84,956.11,59.83q-36.61,0-59.19,24.71-19.83,21.66-19.83,53.39,0,34.48,22.58,56.45Q921.33,216,956.11,216q35.4,0,56.45-21.36Q1034.82,173.64,1034.83,137.93Z" transform="translate(61.87 8.42)"/><path class="cls-290" d="M1319.18,180q0,33.56-30.2,52.47-29.91,18.62-86.65,18.61-76.59,0-121.12-31.42l13.42-30.21q50,30.52,108,30.51,37.81,0,58.27-10.37,19.83-10.06,19.83-27.46,0-20.13-25.93-27.15-13.74-3.36-73.23-7.32-53.38-3.67-74.14-14-25-12.19-25-41.8,0-30.19,28.37-47.59,27.77-17.4,79.63-17.39,64.08,0,108.92,27.46L1284.4,82.4q-47.3-24.09-96.71-24.1-33.27,0-50.35,7.63Q1120,73.57,1120,87.29q0,14,18.61,20.44,12.82,4.88,43.33,6.71,44.53,2.75,58.58,4.58,40.88,5.49,59.49,19.83Q1319.19,153.49,1319.18,180Z" transform="translate(61.87 8.42)"/><path class="cls-291" d="M1553.19,149.83l-16.47,55.22L1495.53,66.84,1442.14,245H1397L1326.51,31.45h39.35l54,178.79,53.39-178.79h44.85Zm41.5,95.19h-33.56l10.37-34.47v.3l53.7-179.4h39.35Z" transform="translate(61.87 8.42)"/><path class="cls-292" d="M1685.61,165.09l148,.3L1779,62l-40.28,75.67h-38.44L1756.7,31.45h44.23L1914.13,245h-38.75l-24.71-47.9H1707L1682.25,245H1643.5Z" transform="translate(61.87 8.42)"/><path class="cls-293" d="M2182.61,98.27q0,32-19.83,48.82-19.53,16.77-58,16.78H1977.89V245H1942.2V132.14h163.22q41.19,0,41.19-33.26,0-35.38-43.63-35.39H1977.89v40.88H1942.2V31.45l169.33.31q32.64,0,52.17,18Q2182.61,67.76,2182.61,98.27Z" transform="translate(61.87 8.42)"/></g></g></g></svg>