<svg xmlns="http://www.w3.org/2000/svg" xmlns:xlink="http://www.w3.org/1999/xlink" viewBox="0 0 528.67 93.59"><defs><style>.cls-1{isolation:isolate;}.cls-2{fill:url(#linear-gradient);}.cls-3{fill:url(#linear-gradient-2);}.cls-4{fill:url(#linear-gradient-5);}.cls-5{fill:url(#linear-gradient-6);}.cls-6{fill:url(#linear-gradient-7);}.cls-7{fill:url(#linear-gradient-8);}.cls-8{fill:url(#linear-gradient-9);}.cls-9{fill:url(#linear-gradient-10);}.cls-10{mix-blend-mode:overlay;}.cls-11{fill:#fefefe;}.cls-12{fill:none;}.cls-13{fill:#fefdfe;}.cls-14{fill:#09fdfd;}.cls-15{fill:#fff;}</style><linearGradient id="linear-gradient" x1="269.64" y1="46.8" x2="531.09" y2="46.8" gradientUnits="userSpaceOnUse"><stop offset="0" stop-color="#26c4d6"/><stop offset="0.19" stop-color="#56d7ea"/><stop offset="0.37" stop-color="#80e7fb"/><stop offset="0.54" stop-color="#69c7f4"/><stop offset="1" stop-color="#3179e4"/></linearGradient><linearGradient id="linear-gradient-2" x1="269.64" y1="46.62" x2="531.09" y2="46.62" xlink:href="#linear-gradient"/><linearGradient id="linear-gradient-5" x1="46.8" y1="-4.25" x2="46.8" y2="96.15" gradientUnits="userSpaceOnUse"><stop offset="0" stop-color="#26c4d6"/><stop offset="0.19" stop-color="#56d7ea"/><stop offset="0.37" stop-color="#80e7fb"/><stop offset="0.62" stop-color="#85aff6"/><stop offset="1" stop-color="#8c61f0"/></linearGradient><linearGradient id="linear-gradient-6" x1="46.79" y1="9.67" x2="46.79" y2="82.57" gradientUnits="userSpaceOnUse"><stop offset="0" stop-color="#0069ab"/><stop offset="0.36" stop-color="#004992"/><stop offset="1" stop-color="#001468"/></linearGradient><linearGradient id="linear-gradient-7" x1="56.33" y1="46.25" x2="68.5" y2="46.25" gradientUnits="userSpaceOnUse"><stop offset="0" stop-color="#26c4d6"/><stop offset="0.19" stop-color="#46a5de"/><stop offset="0.47" stop-color="#707ce9"/><stop offset="0.49" stop-color="#7379ea"/><stop offset="0.61" stop-color="#816bed"/><stop offset="0.75" stop-color="#8a63ef"/><stop offset="1" stop-color="#8c61f0"/></linearGradient><linearGradient id="linear-gradient-8" x1="43.23" y1="40.42" x2="60.59" y2="40.42" xlink:href="#linear-gradient-7"/><linearGradient id="linear-gradient-9" x1="37.06" y1="50.95" x2="51.68" y2="50.95" xlink:href="#linear-gradient-7"/><linearGradient id="linear-gradient-10" x1="25.09" y1="46.76" x2="37.36" y2="46.76" xlink:href="#linear-gradient-7"/></defs><g class="cls-1"><g id="Layer_2" data-name="Layer 2"><g id="Layer_1-2" data-name="Layer 1"><path class="cls-2" d="M331.92,56.15q0,7.65-6.89,11.95t-19.74,4.25q-17.46,0-27.6-7.17l3.05-6.88a46.43,46.43,0,0,0,24.62,7q8.61,0,13.28-2.36,4.51-2.3,4.51-6.26,0-4.59-5.9-6.18-3.13-.77-16.69-1.67-12.17-.84-16.9-3.2Q278,42.8,278,36.05t6.47-10.84q6.33-4,18.15-4,14.6,0,24.82,6.26L324,33.9a48.05,48.05,0,0,0-22-5.49q-7.57,0-11.47,1.73t-4,4.87c0,2.13,1.41,3.69,4.24,4.66q2.91,1.11,9.87,1.53c6.77.42,11.21.76,13.35,1q9.31,1.26,13.55,4.52A11.1,11.1,0,0,1,331.92,56.15Z"/><path class="cls-3" d="M385.24,49.26l-3.75,12.59-9.39-31.5L359.93,71H349.64L333.58,22.29h9L354.86,63,367,22.29h10.22ZM394.7,71h-7.65l2.36-7.86v.07l12.24-40.88h9Z"/><path class="cls-3" d="M415.42,52.74l33.72.07L436.69,29.24l-9.18,17.24h-8.76l12.86-24.19H441.7L467.49,71h-8.83L453,60H420.28L414.65,71h-8.83Z"/><path class="cls-3" d="M528.67,37.51q0,7.31-4.52,11.13t-13.21,3.82H482V71h-8.13V45.23h37.19q9.39,0,9.39-7.58,0-8.05-9.94-8.06H482V38.9h-8.13V22.29l38.58.07q7.44,0,11.89,4.1T528.67,37.51Z"/><circle class="cls-4" cx="46.8" cy="46.8" r="46.8"/><path class="cls-5" d="M81.57,45.13,48.46,12a2.37,2.37,0,0,0-3.33,0L12,45.13a2.37,2.37,0,0,0,0,3.33L45.13,81.57a2.37,2.37,0,0,0,3.33,0L81.57,48.46A2.37,2.37,0,0,0,81.57,45.13ZM71.9,48.46,48.46,71.9a2.37,2.37,0,0,1-3.33,0L21.69,48.46a2.37,2.37,0,0,1,0-3.33L45.13,21.69a2.37,2.37,0,0,1,3.33,0L71.9,45.13A2.35,2.35,0,0,1,71.9,48.46Z"/><polygon class="cls-6" points="68.5 46.8 60.59 48.81 56.33 43.69 68.5 46.8"/><polygon class="cls-7" points="60.59 48.81 53.67 50.58 51.68 55.75 43.23 33.4 46.79 25.09 53.67 43.01 56.33 43.69 60.59 48.81"/><polygon class="cls-8" points="51.68 55.75 46.79 68.5 39.11 50.58 37.06 50.03 37.36 43.48 39.11 43.01 43.23 33.4 51.68 55.75"/><polygon class="cls-9" points="37.36 43.48 37.06 50.03 25.09 46.8 37.36 43.48"/><g class="cls-10"><path class="cls-11" d="M47.11,48.58H35.55a5.36,5.36,0,0,0,5.05,3.57h4.62l-.44,2.53-.19,1h-4a8.93,8.93,0,0,1-7.14-3.57,8.95,8.95,0,0,1,0-10.71,8.93,8.93,0,0,1,7.14-3.57h6.51a6.9,6.9,0,0,0-1.51,1.54,6.43,6.43,0,0,0-1,2h-4A5.36,5.36,0,0,0,35.55,45h9.09a6.7,6.7,0,0,0,1.27,2.44A7.14,7.14,0,0,0,47.11,48.58Z"/><line class="cls-12" x1="56.56" y1="45.01" x2="55.79" y2="45.01"/><line class="cls-12" x1="45.69" y1="45.01" x2="45.65" y2="45.01"/><path class="cls-11" d="M56.56,45a4.61,4.61,0,0,1,.84.07,5.37,5.37,0,0,1,4.21,3.5,5.46,5.46,0,0,1,0,3.57,5.36,5.36,0,0,1-5,3.57H48.82l.63-3.57h7.11a1.79,1.79,0,0,0,0-3.57H50.74a5.07,5.07,0,0,1-1.36-.18A5.37,5.37,0,0,1,45.69,45a5.46,5.46,0,0,1,0-3.57,5.45,5.45,0,0,1,.74-1.39,5.37,5.37,0,0,1,4.31-2.18h10v3.57h-10a1.79,1.79,0,0,0,0,3.57h5.82Z"/><polygon class="cls-11" points="48.97 52.15 48.34 55.72 47.58 55.72 48.2 52.15 48.97 52.15"/><polygon class="cls-11" points="46.47 52.15 46.19 53.75 45.84 55.72 45.08 55.72 45.31 54.37 45.7 52.15 46.47 52.15"/><polygon class="cls-11" points="47.72 52.15 47.71 52.18 47.09 55.72 46.33 55.72 46.75 53.26 46.76 53.25 46.95 52.15 47.72 52.15"/><line class="cls-12" x1="55.79" y1="45.01" x2="56.56" y2="45.01"/></g><path class="cls-13" d="M47.11,48.58H35.55a5.36,5.36,0,0,0,5.05,3.57h4.62l-.44,2.53-.19,1h-4a8.93,8.93,0,0,1-7.14-3.57,8.95,8.95,0,0,1,0-10.71,8.93,8.93,0,0,1,7.14-3.57h6.51a6.9,6.9,0,0,0-1.51,1.54,6.43,6.43,0,0,0-1,2h-4A5.36,5.36,0,0,0,35.55,45h9.09a6.7,6.7,0,0,0,1.27,2.44A7.14,7.14,0,0,0,47.11,48.58Z"/><line class="cls-12" x1="56.56" y1="45.01" x2="55.79" y2="45.01"/><line class="cls-12" x1="45.69" y1="45.01" x2="45.65" y2="45.01"/><path class="cls-14" d="M56.56,45a4.61,4.61,0,0,1,.84.07,5.37,5.37,0,0,1,4.21,3.5,5.46,5.46,0,0,1,0,3.57,5.36,5.36,0,0,1-5,3.57H48.82l.63-3.57h7.11a1.79,1.79,0,0,0,0-3.57H50.74a5.07,5.07,0,0,1-1.36-.18A5.37,5.37,0,0,1,45.69,45a5.46,5.46,0,0,1,0-3.57,5.45,5.45,0,0,1,.74-1.39,5.37,5.37,0,0,1,4.31-2.18h10v3.57h-10a1.79,1.79,0,0,0,0,3.57h5.82Z"/><polygon class="cls-14" points="48.97 52.15 48.34 55.72 47.58 55.72 48.2 52.15 48.97 52.15"/><polygon class="cls-13" points="46.47 52.15 46.19 53.75 45.84 55.72 45.08 55.72 45.31 54.37 45.7 52.15 46.47 52.15"/><polygon class="cls-14" points="47.72 52.15 47.71 52.18 47.09 55.72 46.33 55.72 46.75 53.26 46.76 53.25 46.95 52.15 47.72 52.15"/><line class="cls-12" x1="55.79" y1="45.01" x2="56.56" y2="45.01"/><path class="cls-15" d="M114.58,57.33v-35h42.55v7.23H122.64V42H157.2v7.23H122.64v8.07ZM157.13,71H114.58V63.65h42.55Z"/><path class="cls-15" d="M213.16,56.42,219.7,60a29.71,29.71,0,0,1-11.19,8.34A38.83,38.83,0,0,1,193.56,71q-12.24,0-20.23-6.12-9.18-7-9.18-18.22t9.32-18.14q8.19-6.19,20.09-6.19,17.24,0,26.49,12l-7,2.43q-7-7.44-19.54-7.44-9.52,0-15.51,4.94a15.34,15.34,0,0,0-6,12.44A15.43,15.43,0,0,0,178,59.21Q184,64,194,64,206.15,64,213.16,56.42Z"/><path class="cls-15" d="M275,46.55a24,24,0,0,1-6.6,17.17q-7.38,7.86-19.26,7.86t-19.33-7.93a24.29,24.29,0,0,1-6.53-17.1,24,24,0,0,1,6.53-17.1q7.58-8,19.33-8t19.33,7.93A24.14,24.14,0,0,1,275,46.55Zm-7.92,0q0-8.13-5.08-12.93-4.86-4.86-12.86-4.87a17.32,17.32,0,0,0-18,17.8,17.15,17.15,0,0,0,5.15,12.86q4.94,5,12.86,4.94T262,59.48C265.42,56.29,267.12,52,267.12,46.55Z"/></g></g></g></svg>