<svg xmlns="http://www.w3.org/2000/svg" viewBox="0 0 1523.48 218.79"><defs><style>.cls-1{fill:#151a24;}.cls-2{fill:#141924;}.cls-3{fill:#151924;}.cls-4{fill:#377ce4;}.cls-5{fill:#377de4;}.cls-6{fill:#357ce4;}.cls-7{fill:#f7f9fd;}.cls-8{fill:#161b26;}</style></defs><g id="Layer_2" data-name="Layer 2"><g id="Layer_1-2" data-name="Layer 1"><path class="cls-1" d="M494.06,218.52c-59.61,0-108.63-49.31-108.76-109.31S434.49-.07,494.59,0C555.08.07,603.81,49.3,603.2,110.75,602.63,168,555.93,218.8,494.06,218.52Zm.25-186.68a77.14,77.14,0,0,0-77,77.32c.11,42.27,34.82,77.28,76.67,77.33a77.15,77.15,0,0,0,77.33-77C571.34,66.12,537.36,31.85,494.31,31.84Z"/><path class="cls-2" d="M138.4,183.52V215.3H0V3.31H138.37V34.52H30.28V80.15h84.11v31.92H30.22v71.45Z"/><path class="cls-3" d="M325.22,106.42h30a110.13,110.13,0,0,1-5.77,38.39c-10.58,30.91-29.51,54.63-60.42,67.06-41.55,16.72-87.35,2.43-114.44-35.11-37.49-52-25.66-125.09,26-160.53C217.32,4.79,235.92-.29,256.37,0V30.89c-7.51,1.29-15,1.64-21.77,3.9C205.32,44.52,189.93,66.33,184,95.55c-6.26,30.81,9,65.56,35.44,81.54,33.65,20.37,77.15,7,96-29.39A84.84,84.84,0,0,0,325,110.87C325,109.41,325.13,108,325.22,106.42Z"/><path class="cls-4" d="M806.28,28.89,793.71,55.33c-7.21-3.42-14-7-21-9.89-29.49-12.35-60-16.21-91.4-9.36A51.11,51.11,0,0,0,665,43c-14.24,9.18-13.07,26.87,2,34.54,10.31,5.26,21.62,6.41,32.89,7.5,20.87,2,41.85,3.3,62.6,6.18a113.9,113.9,0,0,1,30.49,9c23.32,10.43,33.42,30.29,30.09,55.67-3.82,29.08-22.46,44.63-48.58,52.91-23.4,7.41-47.56,7.53-71.76,5.57-22.29-1.8-43.72-6.91-63.48-17.74a150.27,150.27,0,0,1-14.64-9.52,4.4,4.4,0,0,1-1.32-3.93c3.22-8.72,6.73-17.33,10.33-26.44,5,3,9.55,5.85,14.27,8.45,35.63,19.61,73.26,25.41,112.93,15.81,9.34-2.26,17.81-6.63,24-14.41,10.59-13.32,6.79-32.58-8.89-38.93-9.51-3.86-20.21-5.3-30.53-6.56-22.8-2.78-45.73-4.5-68.54-7.23a119.11,119.11,0,0,1-22.74-5.51c-21.39-7-31.92-23.32-30.85-45.78,1.25-26.33,16.23-42,39.23-51.5C680,3.81,698.62,2.48,717.37,2.73c30.19.4,58.77,6.81,84.59,23.21C803.34,26.82,804.66,27.78,806.28,28.89ZM636.92,167.38c-1.7,4.28-3.12,8.35-4.93,12.23-1.27,2.72-.64,4.33,1.87,5.65,6.77,3.55,13.29,7.66,20.29,10.68,25,10.78,51.48,12.79,78.3,12.11,16.56-.42,32.89-2.33,48.28-9,19.85-8.61,33.32-22.4,35.31-45,1.83-20.7-3.94-37.77-25.44-47.17-9.05-4-18.77-7.31-28.49-8.62C740.86,95.39,719.4,94.1,698,92c-12.26-1.22-24.53-2.77-35.58-8.86-17.35-9.55-19.59-32.09-3.94-44a55.92,55.92,0,0,1,18.18-8.91c21-6.05,42.45-5.55,63.82-1.66a175.33,175.33,0,0,1,49.87,17.4l7-14.7c-4.43-2.39-8.71-5-13.19-7.06C751.66,8.89,717.47,7,682.61,12.47c-15.21,2.39-29.08,8.46-40.07,19.8C619.45,56.09,628.44,93,659.75,103a24.55,24.55,0,0,0,4.32,1.2c20.61,2.64,41.22,5.18,61.83,7.83,15.16,1.95,30.58,2.86,45.42,6.28,26,6,34.78,34.85,17.23,54.71-7,8-16.44,12.39-26.63,14.93-37.38,9.33-73.28,4.37-107.93-11.65C648.29,173.65,642.83,170.48,636.92,167.38Z"/><path class="cls-5" d="M990.66,7.18c5.65,21.35,11.21,42.4,16.77,63.44q5.93,22.44,11.81,44.88c.41,1.57,1,3.36.59,4.83-4.3,16.73-8.78,33.41-14.16,50.17Q988.87,107.23,972.08,44l-1.14-.14c-.82,2.87-1.69,5.73-2.46,8.61q-20.4,76.44-40.68,152.92c-.92,3.5-2.33,4.45-5.75,4.37-9.49-.22-19-.32-28.49,0-4.13.15-5.74-1.25-6.86-5.11Q861.19,117,835.41,29.42c-2.13-7.29-4.25-14.57-6.48-22.23h33.5q22.37,83.19,44.74,166.44h1.05L952.47,7.18Zm-152.46,7c1.54,5.29,2.9,10.06,4.3,14.82q24.63,84,49.17,168c1.26,4.34,3.09,5.86,7.57,5.53a134.15,134.15,0,0,1,17.48,0c3.79.22,5-1.25,6-4.77,13.76-52.07,27.72-104.08,41.53-156.14,1.08-4.07,3-6.69,7.41-6.56,4.11.12,6,2.51,7,6.44,9,34.25,18.13,68.45,27.49,103.68,2-7.26,4-13.55,5.27-20a28.09,28.09,0,0,0,0-11.62c-4.28-17.43-9-34.75-13.6-52.11q-6.22-23.59-12.42-47.22H958c-.45,1.34-.94,2.55-1.27,3.8q-14.6,55-29.17,109.91c-4.26,16.06-8.58,32.11-12.8,48.19-.9,3.44-2.68,5.73-6.38,5.94-3.92.22-6.07-2.24-7.54-5.46a18.23,18.23,0,0,1-.78-2.88L865.46,45.09c-2.79-10.36-5.61-20.72-8.38-30.95Z"/><path class="cls-6" d="M1351.43,38V76.21h-30.26V7.27c1.59-.09,3.18-.27,4.76-.26,46.15.11,92.3.16,138.44.4,34.81.17,58.11,22.68,59.06,57.51a107.54,107.54,0,0,1-2.47,27.7c-5.36,22.45-23.78,36.86-48.63,39.29-6.12.6-12.29.9-18.44.91-32.15.09-64.31,0-96.47,0h-5.94v76.73c-9.79,0-19.07.1-28.34-.18-.8,0-2.16-2.55-2.19-3.93-.18-10-.1-20-.1-30,0-22.49.15-45-.11-67.47-.06-4.76,1.45-5.75,5.9-5.73q65.49.22,131,0a65.35,65.35,0,0,0,14.85-1.53c14.53-3.46,22.11-15.59,20.83-32.53-1.39-18.6-11.58-29.71-30.21-30C1426.11,37.59,1389.12,38,1351.43,38Zm-7.1,164.38c0-22.35,0-44.17,0-66,0-8.71,1.85-10.56,10.59-10.57,32.65,0,65.31,0,98,0,6.32,0,12.65-.31,18.95-.87,20.9-1.85,37.08-13.65,42-32.84a97.65,97.65,0,0,0,2.26-31.63c-1.69-20.5-11.84-36-32-42.84a67.34,67.34,0,0,0-20.58-3.12c-36.48-.42-73-.4-109.45-.52-8.59,0-17.18,0-25.79,0V69.34h16.12c0-10.06-.07-19.86,0-29.65.07-6.46,2.35-8.79,8.81-8.8,35.66-.05,71.32-.31,107,.1,24.15.28,37.3,12.2,39.85,35.88,1.65,15.38-3.32,30-16.86,37.25-7.65,4.08-16,5.27-24.64,5.27H1328.13v93Z"/><path class="cls-4" d="M1310.89,209.63c-10.26,0-20.08.16-29.88-.17-1.52-.05-3.58-2.09-4.34-3.7q-8.93-18.69-17.34-37.62c-1.26-2.8-2.83-3.92-6-3.91q-56.24.17-112.48,0c-3.17,0-4.7,1.09-6,3.92-5.63,12.61-11.59,25.07-17.19,37.69-1.28,2.89-2.83,3.93-6,3.86-9.29-.19-18.58-.07-28.74-.07,1-2.31,1.63-3.93,2.37-5.51,10.37-22.14,20.83-44.25,31.07-66.45,1.41-3.06,3-4.06,6.38-4,38,.22,76,.27,114,.36h6.13c-15.25-32.51-30.18-64.35-45.65-97.32-3,6.13-5.43,11.24-7.86,16.37-8,16.84-16,33.64-23.85,50.56-1.45,3.14-3.07,4.48-6.68,4.36-9-.29-18-.09-27.62-.09a31.48,31.48,0,0,1,1.2-3.93q22.14-46.93,44.45-93.8a6.48,6.48,0,0,1,4.75-3c10.33-.27,20.66-.25,31,0a6,6,0,0,1,4.45,2.68q46.79,98.78,93.29,197.67A15.11,15.11,0,0,1,1310.89,209.63ZM1094,202.38c5.16,0,9.32-.22,13.44.08,3.26.23,4.72-1.24,5.95-4,5.09-11.38,10.51-22.62,15.48-34.06,2.32-5.34,6-7.35,11.66-7.33q56.73.16,113.46,0c5.46,0,9,2,11.3,7.14,5,11.43,10.25,22.74,15.57,34,.76,1.6,2.34,3.79,3.72,3.92,4.86.48,9.8.19,15.57.19-1.87-4.05-3.28-7.19-4.75-10.3q-41-86.88-81.85-173.78c-1.45-3.1-3-4.56-6.64-4.38-6.65.34-13.33.27-20,0-3.11-.12-4.62.88-6,3.77-9.25,19.91-18.75,39.7-28.13,59.55-3.6,7.6-7.12,15.23-11,23.58,4.86,0,8.82-.21,12.75.07,3.26.22,4.92-.8,6.37-3.93,9.3-20.06,18.92-40,28.35-60,1.62-3.42,3.13-6.94,7.56-7s6.59,3.14,8.31,6.82q21,45,42.18,89.87c4.56,9.7,1.75,14.29-8.87,14.28-33.65,0-67.32.5-101-.48-11.34-.33-17,2.79-21.17,13.42C1110,170.15,1101.82,185.63,1094,202.38Z"/><path class="cls-4" d="M1080.46,7.19h33.48c-2.76,9.57-5.4,18.8-8.08,28q-24.61,84.54-49.13,169.1c-1.16,4-2.61,5.69-7,5.45-7.45-.42-15-.12-23.23-.12Zm-44.86,195.2c3.07,0,5.24-.27,7.32.05,5.36.83,7.56-1.24,9.1-6.61,14.21-49.7,28.79-99.28,43.25-148.91,3.15-10.8,6.21-21.62,9.38-32.66h-18.93C1069.07,76.78,1052.47,139.07,1035.6,202.39Z"/><path class="cls-7" d="M1344.33,202.42h-16.2v-93h130.36c8.6,0,17-1.19,24.64-5.27,13.54-7.21,18.51-21.87,16.86-37.25-2.55-23.68-15.7-35.6-39.85-35.88-35.65-.41-71.31-.15-107-.1-6.46,0-8.74,2.34-8.81,8.8-.1,9.79,0,19.59,0,29.65h-16.12V14c8.61,0,17.2,0,25.79,0,36.48.12,73,.1,109.45.52A67.34,67.34,0,0,1,1484,17.64c20.2,6.87,30.35,22.34,32,42.84a97.65,97.65,0,0,1-2.26,31.63c-4.88,19.19-21.06,31-42,32.84-6.3.56-12.63.85-18.95.87-32.66.08-65.32,0-98,0-8.74,0-10.59,1.86-10.59,10.57C1344.32,158.25,1344.33,180.07,1344.33,202.42Z"/><path class="cls-8" d="M495.15,124.18c-8,0-15.22-7.3-15.16-15.28a15.33,15.33,0,0,1,30.66.25C510.64,118.13,504.36,124.22,495.15,124.18Z"/></g></g></svg>